<?xml version="1.0" standalone="no"?>
<!DOCTYPE svg PUBLIC "-//W3C//DTD SVG 20010904//EN"
 "http://www.w3.org/TR/2001/REC-SVG-20010904/DTD/svg10.dtd">
<svg version="1.0" xmlns="http://www.w3.org/2000/svg"
 width="899.000000pt" height="1599.000000pt" viewBox="0 0 899.000000 1599.000000"
 preserveAspectRatio="xMidYMid meet">

<g transform="translate(0.000000,1599.000000) scale(0.100000,-0.100000)"
fill="#000000" stroke="none">
<path d="M0 12839 l0 -3151 79 4 c54 2 82 -1 90 -9 7 -7 25 -13 41 -13 17 0
30 -4 30 -9 0 -13 72 -20 92 -9 10 4 15 14 12 22 -4 10 9 15 45 20 28 4 51 11
51 16 0 25 -15 40 -40 40 -16 0 -30 7 -34 16 -5 14 -1 15 31 9 21 -5 50 -9 64
-10 59 -6 115 -18 127 -28 9 -7 16 -7 23 0 7 7 -14 21 -67 43 -43 18 -89 39
-101 47 -33 22 -29 43 8 43 40 0 34 19 -14 45 -20 11 -37 23 -37 28 0 12 60 8
153 -11 l89 -18 -5 22 c-6 31 16 34 77 13 51 -17 80 -15 73 5 -2 6 -13 16 -25
22 -37 18 -39 27 -5 20 39 -9 50 7 32 42 -11 20 -11 26 -1 29 6 3 12 11 12 19
0 8 5 23 12 33 20 32 -8 102 -49 124 -19 9 -40 17 -47 17 -18 0 -26 23 -15 41
8 12 10 12 18 0 6 -9 27 -15 58 -15 48 -1 48 -1 48 32 0 56 13 58 197 36 40
-5 48 -10 59 -35 8 -21 9 -36 1 -53 -12 -27 1 -56 26 -56 9 0 31 -7 47 -16 32
-17 118 -35 172 -37 18 0 30 -3 29 -6 -2 -3 25 -7 61 -9 42 -2 76 -10 96 -23
41 -24 92 -26 83 -3 -6 15 3 16 79 9 71 -6 85 -4 85 8 0 8 -12 17 -27 20 -97
18 -196 51 -265 88 -10 5 -25 9 -33 9 -8 0 -34 14 -57 30 -22 17 -52 30 -66
30 -26 0 -104 20 -112 30 -3 3 -14 5 -24 5 -23 0 -29 14 -16 35 7 12 13 12 33
1 21 -11 32 -11 63 0 37 12 38 13 14 19 -14 3 -25 12 -25 20 0 16 53 17 146 5
46 -7 51 -5 133 42 11 7 15 13 9 13 -18 0 -16 29 1 36 8 3 19 19 25 36 l11 31
95 -7 95 -7 0 30 c0 29 2 31 40 31 23 0 40 -5 40 -11 0 -6 6 -9 14 -6 8 3 47
-2 88 -12 40 -10 94 -21 121 -25 26 -3 60 -12 75 -20 18 -9 44 -12 74 -9 32 4
58 0 81 -10 19 -9 68 -24 110 -33 43 -10 77 -21 77 -26 0 -4 15 -8 34 -8 19 0
46 -4 61 -10 23 -9 81 -17 253 -37 l54 -6 -4 29 c-3 33 -44 57 -117 69 -22 4
-41 11 -41 16 0 5 -17 9 -38 9 -21 0 -48 7 -61 16 -13 9 -55 23 -94 30 -38 8
-80 20 -93 29 -13 8 -37 15 -53 15 -16 0 -32 4 -35 8 -3 5 -30 15 -61 22 -62
15 -74 24 -47 35 28 13 42 14 42 4 0 -10 53 -12 63 -3 3 4 2 15 -4 25 -7 14
-21 19 -52 19 -44 1 -80 17 -84 38 -2 6 6 12 17 12 14 0 20 7 20 24 0 22 3 23
78 24 98 1 127 -14 118 -63 -6 -31 -5 -33 26 -38 55 -8 68 6 68 73 0 57 -1 60
-25 60 -16 0 -25 6 -25 15 0 18 0 18 75 0 33 -8 84 -14 113 -15 28 0 52 -4 52
-9 0 -9 57 -25 123 -36 28 -5 37 -3 37 8 0 8 -11 18 -25 21 -14 4 -23 10 -20
15 5 10 -65 41 -92 41 -34 0 3 19 45 23 23 2 45 7 48 10 5 5 -72 44 -133 68
-12 4 -29 22 -38 38 l-15 30 38 12 c32 9 44 8 68 -4 16 -8 45 -17 64 -19 28
-2 37 1 45 20 5 12 18 22 29 22 16 0 18 6 14 50 -6 60 -21 80 -60 80 -51 0
-128 32 -128 54 0 17 6 18 78 11 42 -4 87 -13 99 -21 36 -22 45 -17 42 24 -3
59 -1 66 31 84 l30 17 0 96 c0 53 5 103 11 113 9 14 8 25 -5 50 -17 33 -22
117 -7 126 19 12 22 69 4 88 -14 16 -17 41 -17 166 0 150 12 232 42 285 14 23
15 31 3 60 -23 54 -26 115 -6 138 10 10 24 19 30 19 12 0 25 21 25 40 0 5 -9
12 -20 15 -15 5 -20 15 -20 41 0 42 19 64 54 64 24 0 26 4 26 40 0 36 -2 40
-25 40 -22 0 -25 4 -25 40 0 29 4 40 15 40 18 0 18 -1 0 43 l-15 35 71 -3 c39
-2 85 -8 102 -14 33 -9 81 -18 252 -47 55 -9 102 -20 105 -24 3 -3 46 -12 95
-18 50 -7 113 -17 140 -22 28 -5 73 -9 101 -9 27 -1 84 -9 125 -20 41 -10 108
-21 149 -25 71 -5 203 -26 390 -61 47 -9 153 -27 235 -40 140 -22 225 -38 352
-67 36 -7 58 -19 68 -34 18 -28 20 -138 5 -264 -6 -47 -15 -123 -21 -170 -6
-47 -16 -96 -22 -110 -10 -19 -10 -35 0 -70 6 -25 12 -67 12 -93 1 -31 6 -50
15 -53 10 -4 12 -14 6 -38 -10 -43 -18 -56 -36 -56 -21 0 -17 -44 6 -65 17
-15 19 -26 14 -65 -6 -45 -4 -50 30 -86 45 -47 54 -78 32 -103 -9 -10 -16 -23
-16 -29 0 -7 -5 -12 -11 -12 -15 0 -89 -63 -89 -77 0 -6 35 -46 77 -88 85 -86
86 -91 19 -135 l-38 -24 22 -18 c12 -10 28 -18 36 -18 17 0 25 -15 18 -34 -5
-12 -20 -16 -64 -16 -66 0 -90 -7 -90 -24 0 -19 42 -54 80 -67 76 -26 110 -67
46 -55 -24 5 -37 2 -46 -9 -7 -8 -22 -15 -34 -15 -40 0 -50 -14 -37 -51 10
-29 23 -40 93 -74 62 -29 93 -39 125 -37 41 1 160 -35 187 -57 6 -5 38 -19 71
-31 72 -27 85 -37 60 -46 -11 -5 -20 -3 -23 4 -3 9 -25 11 -83 6 -53 -5 -79
-3 -79 4 0 6 6 12 13 15 6 2 -10 2 -38 0 -42 -4 -56 -1 -88 21 -21 14 -44 26
-50 26 -7 0 -17 4 -23 10 -13 13 -214 24 -214 11 0 -6 17 -18 38 -28 20 -9 39
-19 42 -22 3 -4 17 -12 33 -20 33 -17 36 -34 4 -26 -12 3 -34 2 -47 -4 -16 -6
-19 -10 -9 -10 9 -1 19 -8 23 -16 3 -8 9 -15 13 -14 19 3 33 -2 33 -11 0 -6
-28 -10 -64 -10 -36 0 -68 -4 -71 -10 -3 -5 3 -10 14 -10 12 0 21 -4 21 -9 0
-11 146 -62 220 -76 19 -4 53 -13 75 -20 106 -35 128 -62 43 -52 -48 6 -51 5
-34 -8 11 -8 28 -15 38 -15 23 0 63 -36 50 -44 -6 -3 -17 -3 -26 0 -9 3 -16 1
-16 -5 0 -6 8 -11 18 -11 17 0 62 -38 62 -53 0 -4 -12 -7 -27 -7 -48 0 -58
-15 -23 -30 25 -10 37 -11 50 -2 14 9 20 8 23 -1 3 -9 11 -9 33 -1 73 28 70
28 57 13 -19 -19 -16 -38 10 -60 18 -15 39 -18 115 -19 73 0 94 -3 98 -15 4
-8 28 -21 55 -29 27 -8 59 -22 71 -30 12 -9 41 -16 63 -16 22 0 78 -14 125
-32 47 -17 104 -33 128 -36 23 -2 42 -7 42 -11 0 -4 26 -14 57 -21 66 -14 103
-30 103 -42 0 -13 103 -9 133 5 38 17 33 27 -13 27 -22 0 -40 5 -40 11 0 15
84 1 156 -27 33 -13 65 -24 70 -24 16 0 125 -47 137 -59 13 -13 7 -14 -74 -15
-45 -1 -55 2 -52 14 4 15 -55 40 -97 40 -11 0 -20 4 -20 9 0 5 -9 11 -20 14
-13 3 -20 0 -20 -9 0 -8 6 -14 14 -14 7 0 20 -7 27 -16 7 -9 41 -29 74 -45 50
-24 75 -29 133 -29 57 0 72 -3 72 -15 0 -11 11 -15 40 -15 27 0 40 -4 39 -12
-4 -33 2 -38 52 -38 62 0 134 -17 150 -36 6 -8 27 -14 47 -14 21 0 40 -7 47
-16 6 -10 27 -19 45 -21 39 -4 80 -28 80 -46 0 -6 -7 -20 -15 -31 -13 -18 -20
-18 -131 -6 -67 8 -122 19 -129 27 -8 7 -25 13 -39 13 -15 0 -44 6 -66 12 -36
12 -40 16 -40 45 0 51 -27 31 -32 -23 -4 -49 -3 -50 80 -89 18 -9 31 -19 28
-23 -2 -4 38 -6 90 -6 70 1 96 -2 105 -13 10 -11 8 -15 -9 -20 -32 -8 -27 -29
11 -43 17 -6 47 -18 65 -26 18 -8 46 -14 62 -14 19 0 34 -7 42 -20 7 -11 23
-20 36 -20 12 0 25 -6 28 -14 6 -16 52 -39 114 -57 25 -7 51 -22 59 -32 9 -13
21 -17 37 -13 21 6 73 -10 84 -26 3 -4 12 -3 20 3 13 8 12 12 -4 24 -11 8 -26
15 -34 15 -8 0 -12 6 -8 15 4 11 -2 15 -24 15 -45 0 -38 27 8 32 20 3 39 1 40
-4 2 -4 21 -8 42 -8 21 0 40 -4 42 -10 2 -5 19 -7 41 -3 53 8 51 38 -3 47 -25
4 -40 12 -40 21 0 8 -17 19 -40 26 -22 7 -40 15 -40 19 0 15 -54 30 -105 30
-40 0 -55 4 -55 14 0 16 -21 26 -56 26 -13 0 -24 3 -24 8 0 13 -54 32 -93 32
-31 0 -38 3 -35 18 3 18 48 30 48 13 0 -7 14 -5 37 5 47 19 203 11 203 -11 0
-12 27 -20 118 -31 23 -4 42 -10 42 -14 0 -5 18 -8 40 -7 22 1 40 5 40 9 0 4
24 8 53 8 37 0 48 3 37 10 -11 7 -4 10 26 10 49 0 68 17 50 43 -7 9 -19 17
-27 18 -8 0 -6 4 6 10 15 7 9 8 -22 4 -33 -4 -43 -2 -43 9 0 8 6 17 13 19 7 3
6 6 -5 6 -9 1 -20 6 -24 12 -5 9 17 10 85 5 79 -7 91 -5 91 8 0 9 -4 16 -9 16
-12 0 -71 59 -71 71 0 5 -4 9 -10 9 -5 0 -10 18 -10 40 0 24 -5 40 -12 40 -9
0 -9 3 -1 11 9 9 20 9 43 -1 24 -10 37 -10 56 -1 14 6 48 11 77 11 29 0 62 3
75 6 26 7 30 42 6 51 -9 3 -27 16 -40 28 -14 13 -38 28 -54 35 -17 7 -30 19
-30 26 0 8 -4 14 -10 14 -5 0 -10 9 -10 21 0 20 3 21 80 14 70 -6 80 -5 80 9
0 9 -7 16 -15 16 -20 0 -19 6 5 30 11 11 33 20 50 20 16 0 48 7 70 16 34 14
38 19 28 31 -8 10 -21 12 -37 8 -91 -22 -95 -22 -153 7 -32 16 -58 32 -58 37
0 6 24 7 55 4 45 -5 55 -3 55 10 0 8 6 17 14 20 13 5 29 57 17 57 -10 0 -2 71
11 97 6 12 7 30 3 40 -5 10 -10 32 -12 49 -3 25 1 32 22 42 14 6 25 16 25 22
0 5 7 10 15 10 8 0 15 9 15 20 0 11 -7 20 -15 20 -11 0 -15 12 -15 43 -1 37
-5 45 -34 63 -18 12 -59 25 -91 29 -72 9 -85 13 -85 31 0 8 -7 14 -15 14 -9 0
-15 9 -15 21 0 21 3 21 58 15 31 -4 85 -10 120 -13 34 -3 62 -10 62 -14 0 -24
37 -5 52 27 16 31 16 37 3 58 -14 21 -13 24 11 45 34 30 26 45 -24 49 -29 2
-42 8 -42 18 0 10 14 14 54 14 30 0 58 5 61 10 3 6 21 10 38 10 l32 1 -37 20
c-44 23 -49 46 -13 55 17 4 25 13 25 28 0 12 9 27 20 34 12 7 18 17 15 21 -2
5 2 11 10 15 20 7 19 43 -1 54 -12 6 -6 12 27 22 23 8 46 22 53 32 6 10 16 18
23 18 15 0 18 56 3 65 -18 11 -11 24 16 31 32 8 74 49 74 72 0 9 -8 22 -19 29
-10 6 -21 26 -23 43 -4 26 -1 34 19 43 23 10 34 57 13 57 -5 0 -10 6 -10 14 0
7 -7 19 -15 26 -21 18 -19 40 5 40 11 0 23 7 26 15 4 8 12 15 20 15 19 0 18
39 -1 46 -8 4 -15 13 -15 20 0 8 7 17 15 20 13 5 15 46 15 284 l0 278 -50 11
c-28 6 -62 11 -76 11 -13 0 -66 9 -117 19 -50 11 -110 22 -132 25 -48 8 -205
36 -415 76 -85 16 -218 41 -295 56 -142 26 -456 88 -530 104 -22 5 -75 14
-117 21 -43 6 -78 15 -78 18 2 23 24 38 190 129 36 20 71 42 78 49 7 7 18 13
24 13 5 0 8 5 6 11 -8 23 -82 41 -393 94 -77 13 -178 31 -225 41 -131 25 -180
34 -243 43 -65 10 -117 29 -117 43 0 14 21 51 38 68 13 12 34 14 121 8 94 -6
139 -5 218 7 36 6 44 14 37 41 -6 23 -4 25 32 24 22 0 101 3 177 6 84 4 142 2
150 -4 7 -5 28 -13 47 -17 19 -4 37 -10 40 -14 11 -14 73 -41 94 -41 13 0 36
-4 52 -10 16 -5 90 -12 164 -14 193 -7 254 -17 315 -51 39 -22 124 -46 213
-60 23 -4 42 -11 42 -16 0 -5 26 -9 58 -9 80 0 262 -22 262 -32 0 -4 13 -8 29
-8 41 0 131 -22 131 -32 0 -4 18 -8 39 -8 22 0 41 -4 43 -10 2 -5 45 -12 96
-16 l92 -7 0 721 c0 678 -1 721 -17 725 -17 4 -17 5 0 6 16 1 17 17 17 192 l0
191 -25 -6 c-30 -8 -75 2 -75 16 0 5 15 9 33 7 74 -5 67 -73 67 651 l0 650
-789 0 -788 0 -10 -42 -11 -43 -1 43 c-1 40 -3 42 -31 42 -26 0 -30 -4 -30
-27 0 -16 -7 -62 -16 -103 -9 -41 -22 -111 -30 -155 -8 -44 -19 -100 -24 -125
-23 -117 -42 -223 -55 -305 -7 -49 -18 -115 -24 -145 -5 -30 -22 -125 -36
-210 -38 -225 -61 -334 -89 -418 l-10 -33 -22 49 c-12 27 -25 74 -29 103 -3
30 -9 61 -11 71 -7 25 -35 31 -56 11 -16 -14 -21 -15 -27 -4 -5 8 -14 10 -21
6 -8 -5 -11 -4 -7 2 7 11 -34 33 -62 33 -25 0 -33 11 -20 27 7 7 9 26 5 43 -4
22 -2 30 8 30 17 0 26 31 26 93 0 43 2 47 24 47 24 0 76 53 76 78 0 6 5 23 11
39 7 20 12 24 18 14 12 -19 45 19 60 69 6 21 23 52 36 68 19 23 25 41 25 80 0
60 7 82 27 82 9 0 12 6 9 18 -3 9 -8 50 -12 90 -6 63 -4 72 10 72 13 0 16 13
16 80 0 64 3 80 15 80 11 0 15 11 15 40 0 22 5 40 10 40 6 0 10 18 10 40 0 22
5 40 10 40 6 0 10 18 10 40 l0 40 -439 0 -440 0 -10 -52 c-6 -29 -13 -75 -16
-103 -10 -82 -86 -591 -101 -670 -2 -16 -7 -48 -10 -70 -3 -22 -9 -62 -15 -90
-19 -100 -28 -152 -43 -265 -9 -63 -20 -146 -26 -185 -6 -38 -13 -86 -15 -105
-3 -19 -9 -55 -15 -80 -11 -51 -28 -170 -37 -245 -6 -64 -13 -71 -13 -13 0 24
-3 48 -7 52 -4 4 -7 19 -8 33 0 14 -6 28 -12 30 -10 4 -13 -16 -13 -76 0 -47
-4 -81 -10 -81 -6 0 -10 33 -10 80 0 73 -2 80 -20 80 -15 0 -20 -7 -20 -27 0
-14 -3 -24 -6 -21 -11 11 8 128 21 128 8 0 11 8 8 20 -3 11 -9 17 -14 14 -12
-7 -11 23 1 66 6 19 15 69 20 110 17 140 41 325 45 345 2 11 8 61 15 110 6 50
15 122 20 160 5 39 12 102 15 140 4 39 12 111 20 160 15 100 32 229 71 513 l5
42 -155 0 c-113 0 -157 -3 -163 -12 -4 -7 -6 -43 -5 -80 2 -63 -10 -92 -21
-50 -3 9 -5 0 -6 -20 0 -21 3 -38 7 -38 5 0 5 -25 0 -56 -5 -30 -6 -59 -3 -64
3 -4 -1 -23 -9 -41 -7 -19 -11 -40 -8 -48 2 -8 0 -11 -6 -7 -7 4 -13 -21 -17
-69 -4 -41 -10 -75 -14 -75 -3 0 -6 -55 -6 -122 0 -112 -2 -126 -23 -161 -13
-20 -28 -34 -34 -31 -7 5 -8 2 -2 -7 10 -17 12 -169 2 -163 -4 3 -10 -7 -14
-21 -4 -17 -11 -24 -20 -21 -9 3 -14 -2 -14 -14 0 -11 5 -20 10 -20 13 0 13
-187 0 -192 -6 -2 -12 -28 -13 -57 -2 -30 -8 -56 -14 -58 -6 -2 -8 -13 -6 -25
3 -11 1 -23 -6 -27 -6 -4 -18 -60 -26 -125 -9 -64 -20 -127 -24 -139 -5 -13
-12 -57 -16 -100 -4 -42 -11 -77 -16 -77 -5 0 -9 -9 -9 -19 0 -11 -6 -21 -12
-24 -9 -2 -13 -27 -14 -73 -1 -38 -2 -82 -3 -99 -2 -27 -3 -28 -12 -10 -8 17
-9 17 -4 -5 3 -14 -2 -70 -10 -125 -26 -174 -75 -525 -75 -537 0 -16 -92 -5
-300 37 -96 19 -272 53 -390 75 -118 23 -375 72 -570 110 -195 38 -449 87
-565 109 -115 22 -271 52 -345 67 -74 14 -147 29 -163 31 -15 3 -33 15 -39 26
-11 21 2 734 21 1222 4 99 9 297 10 440 1 143 4 358 7 478 l5 217 -99 0 -99 0
-6 -47 c-9 -69 -26 -144 -35 -157 -5 -6 -9 -28 -9 -48 -1 -21 -11 -81 -24
-134 l-24 -97 -78 6 c-76 5 -113 19 -101 39 12 19 3 182 -12 241 -10 38 -13
83 -10 128 l5 69 -994 0 -995 0 -1 -27 c-1 -31 -13 -257 -28 -533 -6 -102 -15
-293 -21 -425 -20 -489 -23 -532 -32 -500 -12 40 -10 675 2 844 5 73 12 231
15 350 3 119 8 233 11 254 l4 37 -260 0 -260 0 0 -3151z m7382 3009 c3 -7 -4
-31 -14 -53 l-19 -40 5 34 c3 18 6 42 6 52 0 21 15 26 22 7z m-37 -175 c-9
-15 -14 -20 -11 -11 3 9 8 34 13 55 7 34 8 35 11 11 2 -15 -4 -40 -13 -55z
m-7100 6 c-4 -5 3 -9 14 -9 11 0 22 -9 26 -20 5 -16 12 -19 28 -14 12 4 26 13
32 20 13 17 65 30 65 15 0 -6 7 -8 15 -5 9 4 15 0 15 -9 0 -8 5 -17 11 -19 15
-5 -6 -521 -21 -526 -6 -2 -11 -22 -11 -45 l-1 -42 -8 40 c-4 22 -5 45 -3 52
3 7 1 19 -5 26 -5 6 -13 28 -17 47 -7 33 -42 70 -74 78 -9 3 -46 4 -82 3 -47
-1 -81 5 -113 19 l-46 19 2 183 3 183 40 5 c73 9 135 9 130 -1z m6689 -6 c2
-10 8 -33 11 -51 4 -18 10 -31 13 -27 3 3 11 -7 17 -22 9 -22 9 -37 -2 -68 -8
-22 -17 -71 -19 -110 -6 -72 -20 -125 -35 -125 -4 0 -13 17 -20 39 -11 37 -50
71 -82 71 -19 0 -28 -23 -16 -41 6 -10 9 -10 9 -1 0 17 19 15 26 -3 4 -8 3
-31 0 -50 -6 -28 -11 -35 -30 -35 -13 0 -26 -7 -30 -15 -12 -32 -24 -12 -30
51 -4 36 -12 74 -19 85 -10 16 -8 23 16 43 16 14 27 33 27 49 0 24 3 26 41 24
44 -2 44 -2 72 64 14 33 14 37 -3 49 -18 13 -37 12 -32 -2 1 -5 -7 -8 -18 -8
-11 0 -20 4 -20 9 0 5 -3 16 -6 25 -4 10 -1 16 9 16 8 0 20 7 27 15 7 8 25 15
41 15 16 0 29 5 29 10 0 17 18 11 24 -7z m406 -97 c0 -8 -4 -18 -10 -21 -5 -3
-10 3 -10 14 0 12 5 21 10 21 6 0 10 -6 10 -14z m-5428 -107 c40 -7 87 -17
103 -24 17 -7 58 -16 93 -19 35 -4 77 -16 94 -26 31 -19 31 -19 50 6 15 19 29
24 63 24 29 0 45 -5 49 -15 3 -8 15 -15 26 -15 11 0 28 -4 38 -10 9 -5 31 -15
47 -21 17 -6 24 -13 18 -16 -7 -3 -13 -11 -13 -18 0 -10 17 -17 51 -21 46 -6
114 -43 80 -44 -11 0 -11 -4 3 -19 16 -17 15 -19 -16 -32 -18 -7 -42 -21 -52
-31 -16 -14 -30 -17 -65 -13 -26 3 -122 8 -216 11 -93 3 -183 9 -199 14 -16 6
-63 10 -105 10 -124 1 -338 26 -364 43 -32 21 -64 23 -117 7 -49 -14 -88 -14
-137 1 -38 12 -46 39 -33 109 5 29 8 56 5 60 -25 40 409 68 597 39z m593 -69
c3 -5 -1 -10 -9 -10 -9 0 -16 5 -16 10 0 6 4 10 9 10 6 0 13 -4 16 -10z m4779
-54 c-3 -15 -8 -25 -11 -23 -2 3 -1 17 3 31 3 15 8 25 11 23 2 -3 1 -17 -3
-31z m-18 -153 c-11 -11 -17 4 -9 23 7 18 8 18 11 1 2 -10 1 -21 -2 -24z m-25
-182 c-11 -53 -30 -154 -41 -226 -34 -201 -37 -217 -55 -261 -9 -23 -15 -45
-14 -50 3 -18 -1 -34 -10 -34 -13 0 -6 60 29 230 5 25 12 63 16 85 3 22 15 85
26 140 11 55 24 121 28 146 5 25 14 66 22 90 l13 44 3 -34 c2 -19 -6 -77 -17
-130z m-5421 99 c106 -17 456 -52 580 -60 75 -4 130 -13 158 -24 24 -10 41
-20 40 -22 -2 -1 -42 -6 -88 -9 -108 -7 -201 -24 -219 -38 -8 -7 -38 -25 -67
-42 -57 -32 -100 -84 -127 -153 -41 -102 -109 -143 -202 -122 -22 5 -84 10
-137 12 -53 1 -92 6 -85 10 7 5 -10 8 -38 9 -61 0 -220 15 -257 24 -15 4 -31
12 -36 19 -22 28 -42 120 -42 191 0 99 16 130 73 146 23 6 51 15 62 20 11 4
54 15 95 24 41 10 80 18 85 20 22 7 144 4 205 -5z m3883 -100 c-3 -11 -7 -20
-9 -20 -2 0 -4 9 -4 20 0 11 4 20 9 20 5 0 7 -9 4 -20z m3207 -13 c0 -8 -9
-22 -20 -32 -20 -18 -20 -17 -19 11 0 16 3 23 6 17 2 -7 9 -13 15 -13 6 0 8 7
4 15 -3 8 -1 15 4 15 6 0 10 -6 10 -13z m-8500 -107 c0 -11 -4 -20 -9 -20 -5
0 -7 9 -4 20 3 11 7 20 9 20 2 0 4 -9 4 -20z m17 -402 c-1 -247 -5 -361 -13
-366 -6 -4 -13 -14 -16 -22 -3 -11 -9 -6 -20 15 -20 37 -45 60 -78 70 -30 9
-66 36 -67 50 0 6 -21 21 -46 33 -38 20 -50 34 -75 85 -16 34 -35 87 -42 117
-7 30 -15 59 -18 64 -12 20 -22 239 -12 249 3 3 31 8 63 12 49 6 57 5 57 -9 0
-42 71 -99 82 -65 2 6 14 2 30 -10 14 -12 31 -21 37 -21 5 0 16 28 23 62 9 43
18 62 30 66 10 2 20 12 23 22 4 12 12 16 25 13 19 -5 20 -15 17 -365z m8483
281 c0 -4 -16 -11 -35 -15 -39 -7 -48 -32 -15 -41 11 -3 20 -13 20 -23 0 -19
-27 -28 -110 -37 -25 -3 -48 -10 -52 -17 -9 -13 -11 36 -2 58 3 9 14 16 23 16
9 0 24 9 34 20 9 11 26 20 37 20 11 0 20 5 20 10 0 6 10 14 22 19 25 9 58 3
58 -10z m-2109 -336 c0 -27 -4 -88 -9 -138 -7 -67 -6 -96 3 -115 7 -14 25 -53
41 -87 15 -35 31 -63 35 -63 15 0 41 -105 40 -165 -1 -11 5 -38 13 -60 8 -22
14 -49 13 -60 -3 -28 -54 -113 -76 -124 -20 -11 -61 -4 -61 11 0 5 -12 9 -27
8 -43 -3 -53 -1 -53 11 0 6 12 10 28 9 41 -3 79 1 65 7 -7 2 -13 10 -13 17 0
6 -26 17 -57 25 -32 7 -61 18 -65 25 -11 16 -10 62 4 128 12 56 13 59 38 53
34 -9 38 -15 17 -29 -19 -14 -22 -26 -8 -26 13 0 41 29 41 42 0 6 -20 29 -44
52 -24 22 -46 54 -50 71 -4 16 -2 77 4 135 27 263 31 295 39 303 5 5 6 28 4
52 -5 36 -2 44 13 47 27 6 64 -68 65 -129z m-6314 5 c-3 -7 -5 -2 -5 12 0 14
2 19 5 13 2 -7 2 -19 0 -25z m5431 -354 c-1 -41 -5 -77 -9 -80 -10 -6 -17 80
-8 91 5 5 9 22 9 37 0 15 2 28 5 28 3 0 4 -34 3 -76z m89 34 c-3 -7 -5 -2 -5
12 0 14 2 19 5 13 2 -7 2 -19 0 -25z m-5587 -108 c0 -61 -11 -76 -30 -40 -9
16 -8 20 5 20 10 0 15 9 14 28 0 24 -1 25 -9 7 -7 -17 -9 -15 -9 13 -1 22 4
32 14 32 12 0 15 -13 15 -60z m5591 7 c-8 -8 -11 -7 -11 4 0 20 13 34 18 19 3
-7 -1 -17 -7 -23z m-91 -40 c0 -8 -7 -14 -15 -14 -8 0 -15 6 -15 14 0 7 7 13
15 13 8 0 15 -6 15 -13z m-24 -173 c-7 -18 -26 -18 -26 0 0 8 5 27 12 43 l12
28 4 -28 c2 -16 1 -35 -2 -43z m53 14 c7 -26 9 -28 10 -10 1 12 6 22 11 22 16
0 11 -59 -14 -155 -19 -73 -25 -84 -28 -60 -4 24 -5 22 -7 -13 0 -23 4 -51 11
-61 9 -15 8 -22 -5 -35 -14 -15 -77 -23 -89 -11 -2 3 -2 24 1 47 5 38 9 43 34
46 27 3 27 4 27 75 0 40 3 83 7 96 6 23 7 24 14 5 5 -10 6 4 2 34 -6 59 10 73
26 20z m-5494 -366 c3 -31 10 -77 16 -102 5 -25 11 -58 13 -75 5 -37 50 -266
71 -360 8 -38 22 -113 30 -165 8 -52 22 -131 30 -175 8 -44 22 -123 31 -175 8
-52 28 -160 44 -240 16 -80 51 -264 80 -410 28 -146 76 -384 107 -530 30 -146
64 -310 75 -365 11 -55 28 -138 38 -185 27 -124 42 -237 35 -260 -6 -18 -15
-20 -94 -20 l-88 0 -52 208 c-29 114 -56 234 -61 267 -5 33 -25 134 -45 225
-19 91 -42 197 -50 235 -39 181 -120 504 -136 543 -31 73 -39 53 -39 -107 0
-149 -6 -211 -20 -211 -14 0 -20 29 -31 153 -8 86 -8 122 -1 125 8 2 9 42 6
123 -5 88 -3 119 6 119 8 0 9 10 4 33 -4 17 -7 41 -6 51 1 18 -39 215 -117
581 -16 77 -39 192 -51 255 -12 63 -28 147 -36 187 -23 121 -15 183 20 148 9
-9 16 -14 16 -10 0 3 9 1 20 -5 11 -6 20 -17 20 -25 0 -21 20 -18 47 7 13 12
23 33 23 50 0 17 8 33 20 40 14 9 20 24 20 51 0 31 3 38 15 33 11 -4 15 2 15
25 0 51 18 22 25 -39z m5472 -14 c-3 -8 -6 -5 -6 6 -1 11 2 17 5 13 3 -3 4
-12 1 -19z m-38 -44 c36 -7 40 -30 16 -87 -11 -26 -12 -36 -3 -39 18 -6 21
-215 4 -253 -8 -16 -17 -46 -21 -67 -4 -20 -18 -47 -31 -59 -23 -22 -27 -22
-71 -10 -73 19 -76 23 -70 120 3 48 10 111 16 141 14 66 51 151 63 144 4 -3 8
6 8 20 0 35 20 44 21 9 l1 -28 7 25 c5 14 6 40 3 58 -5 35 0 37 57 26z m1708
-290 c-3 -3 -12 -4 -19 -1 -8 3 -5 6 6 6 11 1 17 -2 13 -5z m-1774 -382 c22
-22 30 -160 10 -183 -6 -8 -21 -47 -32 -87 -11 -40 -27 -80 -36 -89 -11 -11
-15 -26 -11 -44 4 -22 1 -31 -14 -39 -26 -14 -36 -13 -55 6 -14 15 -14 18 0
40 15 23 14 27 -6 55 -20 29 -21 37 -14 157 7 135 21 182 58 200 28 15 77 6
100 -16z m-185 -1202 c2 -6 13 -10 25 -11 14 0 7 -5 -18 -13 -31 -9 -41 -9
-43 0 -2 7 -11 10 -20 8 -23 -6 -46 11 -37 26 9 14 88 5 93 -10z m-68 -99 c12
-23 -3 -37 -17 -18 -22 27 -24 37 -9 37 8 0 20 -9 26 -19z m-5061 -178 c3 -2
0 -8 -6 -14 -11 -11 -63 7 -63 22 0 8 59 1 69 -8z m5075 -152 c17 -18 17 -23
2 -74 -20 -67 -20 -67 -1 -67 8 0 15 -4 15 -10 0 -18 -30 -11 -53 13 -13 12
-28 22 -35 23 -7 1 -16 2 -21 3 -5 0 -9 16 -8 34 0 17 -1 39 -4 47 -2 9 9 21
31 32 44 23 53 22 74 -1z m1702 -90 c11 9 18 8 34 -6 10 -9 23 -14 28 -11 5 3
17 -3 27 -14 16 -18 16 -20 2 -20 -10 0 -17 5 -17 10 0 6 -17 9 -37 8 -21 -1
-57 -1 -80 0 -38 2 -43 5 -43 26 0 25 0 25 36 10 28 -12 39 -12 50 -3z m1332
3 c16 -5 22 -14 22 -35 0 -37 -21 -38 -54 -2 -19 20 -22 29 -13 35 14 9 16 9
45 2z m-3098 -62 c0 -5 18 -15 40 -22 28 -9 40 -19 40 -33 0 -14 -5 -17 -17
-12 -10 3 -42 13 -72 21 -30 7 -56 16 -58 18 -5 5 46 35 60 36 4 0 7 -4 7 -8z
m-5010 -50 c63 -22 70 -36 22 -40 -39 -4 -132 36 -132 57 0 16 30 12 110 -17z
m5810 18 c0 -5 6 -10 13 -10 8 0 26 -10 40 -23 24 -20 27 -30 27 -90 0 -37 -1
-67 -2 -67 -18 1 -153 53 -164 64 -8 8 -14 31 -14 50 0 20 -4 36 -10 36 -5 0
-10 -4 -10 -9 0 -37 -86 -55 -124 -26 -16 12 -17 19 -8 37 6 13 11 17 11 11 1
-7 12 -13 26 -13 17 0 23 4 19 15 -9 23 17 27 69 11 45 -13 47 -13 47 5 0 16
7 19 40 19 22 0 40 -4 40 -10z m1287 -55 c-11 -11 -22 -12 -51 -4 -20 5 -36
12 -36 14 0 3 23 5 51 5 44 0 49 -2 36 -15z m174 -45 c20 -16 21 -19 7 -20
-10 0 -32 9 -50 20 l-33 20 26 0 c15 0 37 -9 50 -20z m-2276 -16 c28 -4 61
-14 73 -22 l24 -15 -24 -13 c-27 -14 -138 -8 -138 7 0 5 -6 9 -12 9 -7 0 -22
7 -32 15 -19 14 -18 15 5 24 13 5 31 8 39 6 8 -2 38 -7 65 -11z m2335 6 c0 -5
-7 -10 -16 -10 -8 0 -12 5 -9 10 3 6 10 10 16 10 5 0 9 -4 9 -10z m-2320 -90
c0 -5 -7 -7 -15 -4 -8 4 -15 8 -15 10 0 2 7 4 15 4 8 0 15 -4 15 -10z m654
-100 c33 -5 62 -13 65 -18 3 -5 20 -16 36 -25 l30 -16 -32 -1 c-23 0 -33 5
-33 15 0 10 -10 15 -29 15 -41 0 -131 22 -131 32 0 10 21 10 94 -2z m-3774
-50 c0 -5 -11 -10 -24 -10 -13 0 -31 -3 -40 -6 -11 -4 -16 -1 -16 10 0 12 10
16 40 16 22 0 40 -4 40 -10z m106 -30 c8 0 14 -4 14 -10 0 -16 -30 -12 -48 7
-16 16 -16 16 1 10 10 -4 25 -7 33 -7z m2914 -70 c19 -6 50 -10 67 -10 23 0
33 -5 33 -15 0 -8 8 -15 18 -15 9 0 30 -7 46 -15 15 -8 35 -15 44 -15 11 0 13
-3 6 -10 -21 -21 -240 26 -274 60 -6 6 -48 26 -70 34 -27 9 95 -4 130 -14z
m360 16 c0 -2 -7 -7 -16 -10 -8 -3 -12 -2 -9 4 6 10 25 14 25 6z m-5209 -37
c10 -11 15 -27 12 -35 -7 -18 -23 -18 -23 0 0 7 -15 18 -32 23 l-33 10 25 11
c33 14 30 15 51 -9z m-94 -21 c-3 -8 -6 -5 -6 6 -1 11 2 17 5 13 3 -3 4 -12 1
-19z m5643 -19 c30 -11 69 -19 87 -19 18 0 33 -4 33 -8 0 -5 23 -14 51 -21 28
-7 47 -17 42 -21 -10 -9 -183 14 -209 28 -11 5 -44 15 -74 21 -30 7 -66 21
-80 32 l-25 20 60 -7 c33 -3 85 -15 115 -25z m-5672 -7 c4 -27 -19 -38 -47
-22 -27 14 -26 24 2 38 29 14 41 10 45 -16z m143 -56 c22 -3 49 -31 49 -50 0
-24 -41 -20 -47 5 -4 16 -11 19 -29 15 -25 -7 -39 7 -30 31 4 10 12 13 24 8 9
-4 24 -8 33 -9z m814 -136 c23 0 35 -5 35 -14 0 -15 49 -36 86 -36 25 0 32
-14 13 -26 -6 -3 -15 -1 -19 6 -4 7 -29 15 -56 18 -27 3 -64 13 -82 24 -18 10
-38 18 -45 18 -21 0 -40 17 -33 29 5 8 16 7 36 -4 16 -8 45 -15 65 -15z m4192
24 c-3 -3 -12 -4 -19 -1 -8 3 -5 6 6 6 11 1 17 -2 13 -5z m53 -144 c0 -5 -9
-10 -21 -10 -11 0 -17 5 -14 10 3 6 13 10 21 10 8 0 14 -4 14 -10z m220 -40
c12 -8 11 -10 -7 -10 -13 0 -23 5 -23 10 0 13 11 13 30 0z m213 -57 c51 -17
62 -33 22 -33 -14 0 -25 3 -25 8 0 8 -49 32 -67 32 -7 0 -13 5 -13 11 0 7 7 8
18 4 9 -4 38 -14 65 -22z m192 -63 c18 -8 17 -9 -7 -9 -16 -1 -28 4 -28 9 0
12 8 12 35 0z m205 -45 c0 -11 -11 -15 -40 -15 -29 0 -40 4 -40 15 0 11 11 15
40 15 29 0 40 -4 40 -15z m1005 -35 c3 -6 -4 -10 -17 -10 -18 0 -20 2 -8 10
19 12 18 12 25 0z m-885 -9 l45 -8 -40 -1 c-22 0 -60 3 -85 7 l-45 8 40 1 c22
0 60 -3 85 -7z m-6408 -90 c13 -5 36 -12 52 -16 22 -5 26 -9 16 -15 -7 -4 -20
-6 -29 -3 -46 14 -71 26 -71 34 0 11 4 11 32 0z m7416 -78 c4 -15 -34 -18 -43
-3 -3 6 -20 10 -36 10 -17 0 -28 4 -25 8 7 12 99 -1 104 -15z m212 -63 c12 -8
11 -10 -7 -10 -13 0 -23 5 -23 10 0 13 11 13 30 0z m274 -80 c27 -10 35 -30
13 -30 -7 0 -31 9 -53 20 -36 18 -37 19 -12 20 15 0 38 -4 52 -10z"/>
<path d="M6912 15483 c4 -36 22 -39 36 -8 16 35 16 35 -14 35 -22 0 -25 -4
-22 -27z"/>
<path d="M6710 13811 c0 -11 5 -23 10 -26 6 -3 10 3 10 14 0 11 -4 23 -10 26
-5 3 -10 -3 -10 -14z"/>
<path d="M5921 13698 c-1 -16 4 -28 9 -28 12 0 12 8 0 35 -8 18 -9 17 -9 -7z"/>
<path d="M460 11941 c0 -5 5 -13 10 -16 6 -3 10 -2 10 4 0 5 -4 13 -10 16 -5
3 -10 2 -10 -4z"/>
<path d="M5850 13320 c0 -5 5 -10 10 -10 6 0 10 5 10 10 0 6 -4 10 -10 10 -5
0 -10 -4 -10 -10z"/>
<path d="M5671 15224 c0 -11 3 -14 6 -6 3 7 2 16 -1 19 -3 4 -6 -2 -5 -13z"/>
<path d="M5641 15124 c0 -11 3 -14 6 -6 3 7 2 16 -1 19 -3 4 -6 -2 -5 -13z"/>
<path d="M5982 14340 c-7 -19 -6 -26 5 -28 22 -5 27 5 16 30 l-11 23 -10 -25z"/>
<path d="M6013 14265 c0 -22 2 -30 4 -17 2 12 2 30 0 40 -3 9 -5 -1 -4 -23z"/>
<path d="M5512 14110 c0 -14 2 -19 5 -12 2 6 2 18 0 25 -3 6 -5 1 -5 -13z"/>
<path d="M7467 13033 c18 -2 50 -2 70 0 21 2 7 4 -32 4 -38 0 -55 -2 -38 -4z"/>
<path d="M7458 12993 c12 -2 32 -2 45 0 12 2 2 4 -23 4 -25 0 -35 -2 -22 -4z"/>
<path d="M2385 10731 c-3 -5 -1 -12 5 -16 5 -3 10 1 10 9 0 18 -6 21 -15 7z"/>
<path d="M1760 10556 c0 -2 18 -6 40 -8 22 -2 40 0 40 4 0 5 -18 8 -40 8 -22
0 -40 -2 -40 -4z"/>
<path d="M1520 10324 c0 -17 22 -14 28 4 2 7 -3 12 -12 12 -9 0 -16 -7 -16
-16z"/>
<path d="M5260 10280 c0 -8 22 -16 103 -36 16 -4 27 -2 27 4 0 6 -17 14 -37
17 -21 4 -48 10 -61 16 -29 11 -32 11 -32 -1z"/>
<path d="M8525 10070 c-3 -5 -1 -10 4 -10 6 0 11 5 11 10 0 6 -2 10 -4 10 -3
0 -8 -4 -11 -10z"/>
<path d="M5709 9938 c-8 -22 -4 -78 8 -106 14 -34 14 -36 -8 -52 -17 -13 -19
-19 -8 -23 8 -3 -2 -6 -21 -8 -25 -1 -28 -3 -12 -6 12 -2 22 -8 22 -12 0 -4 9
-7 20 -8 11 -1 20 4 20 11 0 23 37 56 62 56 48 0 160 -91 232 -189 171 -231
200 -276 198 -305 -2 -16 5 -45 14 -63 8 -19 13 -41 10 -49 -3 -8 3 -25 14
-36 23 -25 26 -40 8 -36 -7 1 -26 -5 -43 -14 -25 -14 -27 -18 -13 -23 9 -4 14
-13 11 -21 -3 -8 1 -14 10 -14 13 0 12 -7 -6 -41 -12 -23 -29 -44 -37 -48 -8
-3 -16 -10 -17 -16 -1 -5 -5 -18 -8 -27 -5 -11 -2 -18 5 -18 7 0 10 -7 6 -16
-4 -11 -2 -15 8 -11 19 8 42 -18 25 -29 -8 -5 -9 -3 -4 6 6 10 2 11 -18 6 -16
-4 -27 -2 -29 6 -2 6 -10 8 -16 4 -9 -5 -9 -13 -2 -26 7 -13 7 -21 -2 -26 -6
-4 -14 -2 -16 4 -6 20 -25 13 -19 -7 6 -23 -15 -35 -32 -18 -8 8 -14 8 -23 -1
-9 -9 -9 -12 3 -12 19 0 51 -37 38 -45 -13 -8 -1 -25 17 -25 8 0 12 5 9 10 -3
6 1 10 9 10 9 0 21 -9 28 -20 7 -11 18 -20 25 -20 7 0 13 -8 13 -17 0 -13 -3
-14 -12 -5 -19 19 -25 14 -26 -20 -1 -29 -15 -47 -36 -48 -5 0 -3 7 4 15 7 8
8 15 2 15 -10 0 -25 37 -23 58 2 11 -11 16 -31 13 -5 0 -8 3 -8 8 0 5 -7 11
-15 15 -14 5 -14 2 0 -22 8 -15 23 -38 33 -52 9 -13 12 -21 6 -17 -7 4 -15 0
-18 -9 -9 -25 -7 -27 10 -13 15 12 16 11 9 -11 -10 -34 -13 -36 -34 -23 -14 9
-22 8 -34 -4 -13 -14 -16 -13 -22 6 -3 11 -11 21 -17 21 -7 0 -7 -4 1 -13 8
-10 7 -17 -2 -27 -10 -10 -9 -12 4 -7 9 3 22 0 28 -6 6 -6 11 -8 11 -4 0 4 8
-1 18 -10 11 -10 31 -26 45 -36 17 -12 28 -32 32 -58 4 -25 12 -39 21 -39 13
0 13 -3 0 -21 -8 -12 -12 -28 -9 -35 3 -8 1 -14 -3 -14 -15 0 -34 54 -28 78
10 34 -14 79 -51 96 -38 18 -45 19 -45 7 0 -5 10 -13 23 -17 31 -10 37 -24 19
-45 -19 -22 -35 -15 -27 12 5 15 1 19 -19 21 -14 0 -32 1 -38 2 -7 1 -12 -5
-10 -13 2 -9 -3 -11 -15 -7 -15 6 -15 5 2 -14 21 -23 9 -26 -19 -5 -11 8 -24
15 -30 15 -6 0 -1 -7 12 -15 18 -13 20 -19 10 -34 -6 -11 -17 -17 -24 -14 -9
3 -11 -2 -7 -17 5 -18 11 -21 33 -16 22 4 29 0 38 -19 10 -22 9 -24 -11 -22
-14 1 -22 -3 -22 -13 0 -11 13 -16 43 -18 40 -3 43 -1 37 17 -5 16 -2 18 14
14 25 -6 50 -33 32 -33 -8 0 -10 -8 -6 -19 3 -11 1 -22 -5 -26 -6 -3 -7 -12
-3 -18 4 -7 9 -38 10 -71 3 -89 47 -126 78 -66 9 17 20 30 25 30 6 0 10 8 10
18 0 9 11 37 25 61 14 23 25 52 25 62 0 10 5 19 10 19 6 0 10 11 10 25 0 17 4
23 14 19 20 -8 30 14 14 33 -11 14 -11 16 2 11 8 -2 16 -14 18 -26 2 -12 9
-22 16 -22 15 0 20 -58 7 -75 -5 -5 -11 -28 -14 -50 -3 -22 -9 -55 -13 -72 -7
-35 2 -41 36 -23 26 14 41 43 45 88 2 20 11 54 20 75 20 47 12 64 -21 42 -24
-15 -24 -15 -12 4 6 11 20 22 30 24 22 6 23 35 2 58 -12 14 -13 22 -4 38 6 12
15 21 20 21 6 0 10 9 10 20 0 11 4 20 8 20 4 0 13 14 19 31 7 18 17 28 23 24
6 -3 8 -11 5 -16 -4 -5 -2 -9 4 -9 6 0 16 10 22 22 7 13 19 29 26 37 8 8 13
22 10 31 -3 13 1 16 19 12 25 -5 42 -32 19 -32 -8 0 -17 -14 -21 -35 -5 -26
-11 -35 -26 -35 -14 0 -18 -5 -15 -15 4 -8 2 -17 -3 -20 -6 -4 -10 -11 -10
-16 0 -6 5 -7 10 -4 21 13 9 -5 -26 -39 -21 -20 -31 -37 -25 -41 19 -11 12
-33 -11 -37 -12 -2 -23 -9 -26 -16 -3 -11 0 -12 16 -3 23 12 36 3 21 -15 -5
-7 -11 -27 -13 -46 -5 -52 -18 -98 -27 -98 -5 0 -9 -10 -9 -23 0 -13 -12 -32
-27 -45 -16 -12 -43 -34 -60 -48 -18 -14 -33 -32 -33 -40 0 -20 27 -6 33 17 4
13 12 19 24 18 10 -2 24 0 31 4 26 17 17 -53 -10 -76 -14 -12 -18 -21 -11 -28
14 -14 65 0 59 17 -3 7 -1 16 4 19 6 4 10 -5 10 -19 0 -14 -4 -28 -10 -31 -5
-3 -10 -14 -9 -23 0 -11 2 -13 6 -4 4 9 8 10 18 2 18 -15 45 25 44 65 l-1 30
-9 -32 c-13 -43 -29 -51 -29 -14 0 16 -4 33 -10 36 -5 3 -10 16 -10 28 1 20 2
21 14 5 18 -24 35 -22 46 5 l9 22 7 -23 c7 -23 7 -23 22 8 8 17 17 28 20 25 3
-3 7 -42 8 -86 1 -45 5 -83 8 -87 9 -9 18 5 25 40 5 22 16 37 34 46 15 7 27
19 27 26 0 18 27 71 37 72 5 1 18 5 31 9 19 6 20 10 10 23 -11 12 -9 17 10 30
12 8 22 21 22 28 0 8 5 14 10 14 16 0 11 50 -5 57 -9 3 -23 20 -32 37 l-16 31
-8 -29 c-5 -16 -12 -32 -17 -35 -14 -9 -27 -55 -13 -47 6 4 11 2 11 -3 0 -17
-21 -13 -36 7 -12 15 -14 14 -15 -13 -1 -16 -1 -35 0 -41 1 -6 -6 -17 -14 -24
-8 -7 -15 -25 -15 -41 0 -19 -5 -29 -15 -29 -8 0 -15 9 -15 19 0 11 -4 23 -10
26 -5 3 -10 1 -10 -6 0 -7 -3 -9 -6 -6 -4 4 1 18 10 31 9 14 16 34 16 44 0 20
35 62 51 62 6 0 9 6 6 13 -4 12 22 67 33 67 4 0 15 7 26 16 15 12 15 15 2 10
-17 -5 -28 11 -21 32 8 21 33 13 43 -13 5 -14 16 -25 25 -25 8 0 15 -9 15 -20
0 -11 7 -20 15 -20 8 0 15 -9 15 -20 0 -13 7 -20 19 -20 19 0 19 -4 12 -76 -1
-7 -11 -14 -22 -17 -14 -4 -20 -11 -16 -21 4 -9 -1 -17 -12 -21 -13 -4 -17
-12 -13 -31 4 -23 -8 -78 -28 -129 -13 -32 -18 -75 -9 -75 21 0 6 -18 -18 -23
-42 -8 -63 8 -63 47 0 21 -6 36 -15 39 -23 9 -28 -11 -11 -45 11 -21 13 -35 6
-42 -6 -6 -12 -3 -16 8 -6 15 -10 13 -35 -14 -16 -17 -29 -38 -29 -47 0 -12
-7 -14 -30 -9 -31 6 -43 -10 -15 -20 12 -5 10 -10 -10 -26 -14 -10 -29 -16
-35 -13 -5 3 -10 1 -10 -6 0 -8 -6 -7 -18 4 -13 12 -21 13 -32 6 -13 -9 -12
-10 2 -5 19 6 43 -27 33 -44 -3 -6 1 -10 9 -10 9 0 16 -4 16 -9 0 -13 -28 -22
-35 -10 -4 5 -11 7 -16 3 -14 -8 9 -34 31 -34 12 0 17 -7 15 -22 -1 -13 -3
-24 -4 -26 0 -2 -13 9 -28 23 -31 28 -59 29 -57 2 1 -9 -4 -17 -12 -17 -9 0
-12 -10 -10 -30 2 -22 -1 -30 -13 -31 -10 0 -12 -2 -3 -6 6 -2 10 -9 6 -14 -3
-5 12 -9 33 -10 l38 -1 -39 -12 c-36 -11 -37 -13 -22 -29 16 -16 16 -17 -2
-17 -10 0 -27 -8 -36 -19 -15 -16 -15 -19 -1 -24 28 -12 15 -24 -21 -20 -36 4
-36 4 -30 -30 7 -40 -9 -93 -32 -102 -14 -5 -14 -7 -2 -16 13 -9 13 -10 -1 -6
-9 3 -21 1 -27 -5 -12 -12 -82 18 -83 36 0 6 -4 2 -9 -9 -6 -15 -9 -16 -9 -4
-1 17 -41 59 -41 43 0 -17 -20 21 -20 38 0 11 5 15 15 12 19 -8 31 40 17 72
-8 17 -8 32 -1 51 13 34 5 53 -21 53 -18 0 -19 3 -10 20 9 17 8 20 -14 20 -28
0 -42 -26 -24 -47 9 -11 9 -16 -2 -23 -9 -5 -17 -5 -21 1 -11 19 -10 -140 1
-182 8 -28 20 -46 40 -57 31 -18 50 -45 25 -36 -20 8 -3 -48 30 -98 28 -42 36
-44 130 -27 33 5 96 9 140 8 44 -1 94 -2 110 -2 17 0 33 -4 36 -10 4 -5 18 -7
32 -3 18 4 26 14 29 36 4 26 2 30 -19 30 -13 0 -22 -4 -19 -9 3 -5 -1 -15 -10
-22 -13 -10 -17 -10 -24 0 -5 9 -17 11 -34 7 -15 -4 -26 -2 -26 4 0 5 5 10 11
10 7 0 17 7 23 15 13 18 106 37 106 22 0 -5 12 -7 28 -4 15 3 39 3 55 0 22 -4
25 -8 16 -19 -14 -17 -36 -18 -41 -2 -4 10 -10 10 -29 1 -13 -6 -18 -12 -10
-12 11 -1 11 -4 1 -16 -6 -8 -9 -19 -5 -25 10 -16 45 -12 45 6 0 11 6 14 20
10 11 -3 29 -9 40 -12 16 -4 19 -2 13 13 -3 10 -3 15 1 11 4 -3 8 -13 10 -21
1 -8 9 -22 18 -31 10 -9 15 -23 12 -31 -8 -19 -18 -19 -34 0 -10 12 -29 14
-99 8 -47 -3 -90 -11 -94 -17 -6 -8 -10 -7 -14 2 -7 17 -53 15 -53 -2 0 -8 6
-18 13 -23 18 -11 78 -13 97 -3 13 7 22 5 30 -5 7 -9 11 -17 9 -19 -9 -9 -55
-10 -68 -1 -10 5 -16 4 -19 -3 -2 -6 -9 -9 -17 -6 -15 6 -30 -12 -17 -20 5 -3
7 -18 4 -33 -3 -19 -1 -25 6 -18 5 6 12 19 14 29 1 11 9 21 16 24 11 3 12 -24
7 -144 -11 -251 -13 -282 -27 -341 -13 -57 -13 -57 -18 -23 -3 19 -2 50 3 68
4 18 7 52 5 75 -3 42 -3 42 -21 -28 -9 -38 -17 -77 -17 -86 0 -9 -9 -41 -21
-70 -23 -60 -52 -122 -46 -99 3 8 12 49 21 90 9 41 23 98 31 125 17 61 37 196
38 250 1 78 -3 138 -8 133 -14 -13 -25 -130 -16 -168 9 -41 4 -49 -17 -28 -16
16 -17 -5 -2 -33 7 -13 7 -19 0 -19 -5 0 -10 5 -10 10 0 6 -4 10 -8 10 -5 0
-16 -34 -26 -75 -10 -41 -22 -77 -27 -81 -5 -3 -9 -16 -9 -30 0 -13 -4 -24
-10 -24 -5 0 -10 -8 -10 -17 0 -9 -3 -14 -6 -11 -10 10 -13 97 -3 103 5 4 9
15 9 26 0 12 4 17 11 13 8 -5 10 5 7 32 -3 22 -1 46 3 54 11 24 59 227 59 254
0 13 -7 27 -16 30 -22 9 -24 8 -24 -9 0 -18 -17 -20 -22 -4 -3 9 -11 8 -28 -1
-14 -7 -41 -12 -61 -12 -30 2 -38 -2 -42 -20 -4 -12 1 -36 9 -53 11 -23 12
-38 5 -56 -9 -23 -10 -23 -10 8 -1 17 -5 35 -11 38 -5 3 -10 21 -10 39 0 34 0
34 -47 32 -36 -1 -48 3 -48 14 -1 15 -8 16 -37 5 -12 -5 -18 -2 -18 7 0 21
-39 41 -55 28 -9 -8 -15 -8 -20 0 -3 5 -1 10 4 10 6 0 11 7 11 15 0 8 -3 14
-7 14 -23 -4 -33 3 -33 21 0 24 -15 25 -54 5 -35 -18 -36 -18 -36 -1 0 8 10
16 22 18 12 2 23 8 25 15 6 17 -41 27 -66 13 -25 -13 -27 -3 -5 28 9 13 14 26
11 28 -3 3 -20 -15 -38 -40 -39 -55 -49 -53 -22 4 54 108 -50 -21 -111 -140
-30 -58 -56 -93 -63 -86 -3 2 3 15 11 29 9 13 14 32 10 41 -4 10 -1 16 8 16 8
0 24 19 36 43 28 54 69 125 93 159 25 34 24 42 -6 62 -14 9 -25 23 -25 32 0
11 -8 9 -33 -10 -19 -15 -38 -26 -43 -26 -13 -1 -81 -53 -134 -103 -25 -24
-69 -63 -99 -88 -29 -24 -75 -74 -101 -111 -26 -37 -50 -65 -53 -62 -3 3 -10
-3 -15 -13 -9 -17 -7 -18 23 -15 18 2 36 -1 39 -7 7 -11 -25 -16 -68 -11 -10
1 -32 -11 -49 -27 l-31 -28 19 30 c10 16 29 41 42 55 13 14 23 28 23 32 0 15
253 257 348 333 75 59 100 85 98 99 -3 22 -25 34 -35 19 -9 -14 -91 -44 -91
-34 0 5 25 19 55 32 30 13 55 27 55 32 0 10 -12 9 -60 -8 -54 -19 -65 -12 -17
11 21 10 34 23 32 33 -1 9 3 19 9 23 21 14 -1 17 -67 11 -36 -3 -64 -9 -62
-14 3 -4 -16 -10 -42 -14 -111 -14 -123 -17 -123 -30 0 -8 -5 -17 -12 -21 -8
-5 -9 -2 -5 10 6 16 2 17 -45 11 -83 -12 -207 -55 -236 -82 -16 -16 -12 -16
22 -3 14 5 28 5 31 0 3 -4 0 -10 -6 -12 -5 -2 -7 -11 -3 -21 5 -14 13 -17 30
-13 14 4 24 2 24 -4 0 -5 -9 -10 -20 -10 -28 0 -25 -18 5 -32 28 -13 23 -32
-7 -24 -12 2 -27 -2 -35 -10 -13 -12 -12 -15 4 -20 10 -3 26 -10 35 -15 11 -5
19 -5 23 1 11 17 31 11 31 -10 0 -19 -6 -20 -82 -19 -85 2 -121 16 -111 43 5
12 0 14 -26 9 -28 -5 -30 -4 -16 8 13 11 14 21 7 47 -5 17 -13 32 -18 32 -15
0 -70 -51 -65 -60 7 -11 -14 -24 -37 -25 -10 0 -17 -4 -15 -10 1 -5 5 -9 10
-7 4 1 7 -2 7 -7 0 -10 -20 -18 -61 -26 -44 -9 -51 -67 -8 -73 13 -2 29 -8 34
-14 7 -7 1 -9 -18 -4 -17 4 -36 1 -50 -9 -13 -8 -27 -12 -30 -8 -4 3 -7 -1 -7
-10 0 -9 5 -17 12 -17 6 0 2 -9 -10 -20 -23 -22 -42 -26 -42 -10 0 6 6 10 13
10 8 0 7 4 -3 10 -25 16 -38 11 -53 -19 -14 -29 -14 -30 14 -41 16 -7 29 -16
29 -21 0 -5 -13 -3 -30 6 -16 8 -37 15 -47 15 -15 0 -16 2 -3 10 12 7 12 12 3
21 -16 16 -46 -7 -38 -31 4 -13 -3 -17 -41 -19 -34 -1 -52 -8 -65 -24 -16 -19
-16 -24 -4 -33 20 -15 20 -17 -20 -38 -27 -15 -38 -16 -49 -7 -11 9 -16 9 -22
0 -4 -7 -2 -15 4 -17 17 -5 42 -31 42 -43 0 -12 -17 -11 -42 2 -26 14 -33 6
-17 -23 7 -12 14 -35 15 -50 2 -29 -5 -29 -38 0 -9 7 -21 11 -27 8 -15 -9 -42
-101 -36 -118 9 -24 -13 -96 -32 -107 -12 -6 -17 -20 -15 -41 1 -17 -4 -45
-12 -63 -23 -48 -36 -117 -27 -141 10 -25 -14 -149 -29 -154 -9 -3 -25 -33
-46 -87 -4 -11 -9 -33 -11 -50 -4 -40 -23 -96 -37 -115 -23 -29 -37 -70 -23
-70 6 0 4 -5 -7 -11 -13 -8 -25 -8 -43 0 -13 6 -28 11 -33 11 -16 0 -11 -28 7
-42 23 -16 28 -45 12 -64 -10 -13 -14 -12 -30 2 -11 10 -19 13 -19 8 0 -12
-242 -5 -254 7 -14 13 -98 11 -152 -2 -44 -11 -45 -13 -38 -43 8 -40 12 -46
30 -46 8 0 15 -9 15 -20 1 -11 3 -24 4 -30 1 -5 3 -28 4 -50 1 -34 4 -40 24
-41 14 0 -2 -11 -45 -31 -69 -32 -85 -48 -48 -48 11 0 20 -4 20 -10 0 -5 9
-10 20 -10 11 0 20 -7 20 -15 0 -19 -11 -19 -36 0 -10 8 -30 15 -45 15 -14 0
-30 5 -36 11 -7 7 -7 -2 2 -27 14 -42 2 -61 -20 -30 -7 9 -17 16 -23 16 -6 0
-26 6 -44 14 -18 8 -51 22 -73 32 -22 9 -42 20 -45 23 -6 7 -123 50 -165 60
-16 5 -52 17 -78 29 -57 25 -117 38 -117 25 0 -13 44 -53 58 -53 20 0 62 -23
62 -34 0 -7 15 -17 33 -25 l32 -12 -32 -17 c-38 -18 -43 -44 -10 -60 19 -9 19
-11 3 -11 -15 -1 -17 -8 -15 -45 5 -52 -13 -76 -42 -58 -10 7 -26 12 -34 12
-18 0 -20 26 -2 33 7 2 8 8 3 13 -5 5 -11 4 -13 -3 -3 -8 -23 -13 -50 -13 -50
0 -84 -23 -64 -43 17 -17 13 -35 -8 -42 -23 -7 -113 12 -122 27 -4 5 -16 7
-28 3 -20 -6 -20 -8 -6 -36 15 -29 35 -39 35 -18 0 23 20 -4 26 -36 6 -33 39
-65 67 -65 8 0 19 -12 26 -26 11 -25 10 -26 -13 -22 -14 3 -27 1 -29 -5 -1 -5
-16 -7 -35 -2 -18 3 -30 10 -27 15 3 5 1 11 -4 14 -5 3 -11 0 -14 -8 -4 -9
-15 -13 -29 -10 -13 2 -17 2 -10 -2 6 -3 12 -12 12 -21 0 -18 -23 -12 -110 32
-36 18 -77 36 -92 39 -16 4 -28 11 -28 16 0 6 -7 10 -15 10 -8 0 -15 3 -15 8
0 4 -19 16 -43 26 -23 11 -51 28 -62 37 -22 19 -207 113 -243 124 -37 11 -45
39 -20 71 12 16 25 31 28 34 4 3 61 68 127 145 66 77 149 170 184 207 65 67
134 169 187 275 88 175 113 344 76 513 -9 41 -18 86 -21 100 -16 82 -108 270
-152 311 -16 15 -30 31 -32 36 -2 6 -14 23 -26 39 -13 16 -41 53 -62 83 -38
51 -130 131 -151 131 -5 0 -13 -7 -18 -15 -8 -16 -42 -11 -42 5 0 9 -33 6 -50
-5 -11 -7 -4 -68 10 -96 6 -10 17 -19 25 -19 10 0 15 -11 15 -35 0 -32 2 -35
31 -35 24 0 30 -4 25 -15 -3 -9 4 -21 19 -31 14 -9 30 -34 37 -57 7 -22 19
-42 28 -44 15 -4 40 -47 40 -70 0 -8 -7 -16 -15 -19 -19 -8 -19 -24 0 -24 12
0 15 -14 15 -65 0 -53 -3 -65 -16 -65 -9 0 -18 9 -21 20 -3 11 -11 20 -18 20
-7 0 -18 7 -25 15 -7 8 -20 15 -29 15 -10 0 -30 13 -46 30 -25 26 -36 30 -83
30 -47 0 -53 2 -48 18 8 25 -21 92 -39 92 -8 0 -15 -7 -15 -15 0 -8 -7 -15
-15 -15 -8 0 -15 5 -15 10 0 6 -7 10 -15 10 -23 0 -8 -49 26 -85 33 -35 36
-56 13 -79 -16 -17 -70 -22 -76 -8 -2 5 -20 12 -40 15 -29 4 -38 2 -41 -11 -4
-14 -5 -14 -6 2 -1 23 -68 99 -76 86 -3 -5 0 -20 6 -34 10 -21 9 -29 -4 -44
-10 -10 -17 -27 -17 -36 0 -12 -5 -16 -16 -12 -11 4 -19 -3 -27 -23 l-11 -29
-17 22 -18 21 -25 -27 c-31 -33 -32 -38 -7 -38 11 0 22 -4 25 -9 9 -14 -23
-81 -39 -81 -18 0 -32 23 -17 28 15 5 16 32 2 32 -5 0 -10 -7 -10 -15 0 -21
-17 -19 -29 4 -17 31 -40 34 -51 6 -11 -28 -20 -31 -38 -13 -8 8 -15 9 -20 3
-9 -13 -42 -34 -64 -41 -11 -4 -18 -16 -18 -30 0 -18 -5 -24 -22 -24 -14 0
-31 -11 -43 -29 -11 -17 -27 -32 -37 -34 -15 -4 -16 -10 -7 -42 8 -27 8 -45 0
-62 -12 -26 -51 -32 -51 -7 0 10 -6 14 -17 10 -10 -3 -30 -8 -46 -12 -17 -4
-27 -13 -27 -25 0 -10 5 -18 11 -16 16 3 33 -27 26 -46 -4 -10 -15 -14 -32
-12 -24 2 -30 -4 -47 -42 -21 -47 -26 -74 -27 -136 -1 -34 -3 -38 -21 -32 -26
8 -47 -9 -65 -52 -9 -22 -21 -33 -34 -33 -27 0 -27 -27 -1 -60 26 -34 25 -50
-4 -50 -27 0 -42 -15 -26 -25 6 -4 5 -11 -4 -21 -13 -12 -20 -11 -55 8 -22 12
-43 19 -46 16 -3 -3 14 -26 39 -52 43 -45 51 -76 24 -92 -15 -10 -54 23 -75
63 -22 42 -53 57 -53 25 0 -10 9 -29 20 -42 23 -27 24 -32 9 -82 -11 -43 -22
-47 -47 -16 -9 11 -26 30 -37 42 -19 20 -20 20 -23 2 -2 -10 0 -21 6 -25 5 -3
12 -22 16 -41 4 -23 14 -39 29 -45 33 -15 29 -50 -6 -50 -16 -1 -32 -7 -37
-14 -6 -11 -9 -10 -12 5 -2 12 -11 -2 -27 -39 l-24 -56 -18 34 c-23 42 -23 45
-5 45 15 0 47 40 59 72 8 23 -18 48 -43 41 -13 -3 -20 -14 -20 -29 0 -21 -2
-23 -19 -13 -24 16 -49 5 -61 -26 -5 -14 -16 -25 -24 -25 -8 0 -16 -5 -18 -11
-2 -6 -21 -12 -43 -12 -39 -2 -40 -3 -40 -40 0 -34 -2 -37 -27 -37 -16 0 -28
-4 -28 -10 0 -5 -7 -10 -16 -10 -9 0 -21 -13 -27 -30 -6 -16 -16 -30 -21 -30
-6 0 -1 -7 11 -15 11 -8 24 -26 27 -40 4 -14 13 -25 21 -25 19 0 27 32 15 64
-15 41 -12 56 14 66 13 5 27 14 31 19 17 29 68 -3 90 -56 8 -18 19 -33 24 -33
6 0 11 -18 11 -41 0 -34 -3 -40 -16 -35 -44 17 -64 18 -64 3 0 -21 -42 -30
-59 -12 -13 12 -19 10 -49 -21 -30 -31 -40 -35 -69 -31 -30 5 -33 3 -33 -19 0
-15 -6 -24 -15 -24 -13 0 -15 -243 -15 -2124 l0 -2124 38 0 c43 0 93 20 113
45 8 9 42 29 75 44 34 16 81 41 105 58 24 16 62 39 84 50 68 37 76 43 198 141
182 146 229 180 266 196 76 32 94 4 39 -58 -40 -43 -59 -75 -95 -150 -15 -32
-37 -61 -50 -67 -38 -17 -30 -53 20 -84 26 -17 37 -47 17 -47 -6 0 4 -15 22
-33 29 -29 38 -32 76 -29 23 2 48 -1 55 -7 9 -7 76 -10 189 -9 97 0 180 -2
186 -6 6 -3 30 0 54 9 24 8 53 15 65 15 12 0 37 13 55 29 20 17 49 31 73 34
195 25 217 33 325 117 51 39 110 99 110 111 0 8 93 142 135 194 45 56 27 71
-37 32 -71 -42 -222 -141 -239 -157 -35 -30 -48 -40 -58 -40 -5 0 -11 -4 -13
-9 -4 -13 -163 -90 -220 -107 -25 -8 -87 -17 -137 -19 l-91 -5 0 28 c0 33 27
62 58 62 13 0 22 6 22 15 0 9 9 15 23 15 63 0 227 85 255 133 9 15 21 27 27
27 5 0 15 10 21 23 10 23 10 23 -67 25 -42 1 -97 6 -120 11 -47 10 -96 4 -168
-23 -45 -16 -127 -22 -133 -8 -1 4 -20 15 -40 24 -34 16 -38 16 -38 2 0 -11
-5 -14 -16 -10 -9 3 -18 6 -20 6 -2 0 -4 6 -4 14 0 14 42 26 91 26 21 0 29 -5
29 -17 0 -14 6 -11 23 11 22 27 33 30 118 41 52 7 95 8 97 4 6 -16 76 -9 107
9 17 10 59 29 95 41 98 35 171 62 207 77 17 8 36 14 41 14 6 0 23 11 39 24 15
13 49 31 76 40 102 34 213 104 217 136 5 38 1 41 -52 35 -52 -6 -53 -6 -33 12
25 24 45 58 45 78 0 22 -55 128 -74 144 -9 8 -16 23 -16 35 0 11 -7 34 -15 49
-30 58 -56 312 -44 431 9 90 39 219 55 237 8 8 14 19 14 23 0 4 9 21 21 37 11
16 18 33 15 38 -3 4 12 16 34 26 22 10 40 22 40 26 0 5 15 26 33 46 59 69 137
186 137 206 0 13 -4 13 -25 4 -14 -7 -25 -15 -25 -19 0 -5 -6 -8 -13 -8 -8 0
-45 -29 -83 -65 -38 -35 -71 -60 -72 -55 -2 6 7 19 20 29 44 36 214 206 240
241 15 19 30 47 33 62 4 16 11 28 15 28 4 0 10 21 13 48 7 70 30 142 75 229
49 98 81 155 93 168 5 5 9 19 9 31 0 13 4 25 9 28 4 3 16 25 25 50 12 31 51
78 139 167 68 68 138 146 156 172 18 27 45 56 60 65 15 9 54 41 86 69 l59 53
4 121 c5 125 5 125 82 334 35 96 92 130 148 87 l23 -18 -26 -29 c-34 -41 -51
-91 -35 -110 7 -8 17 -15 22 -15 6 0 23 -9 39 -21 16 -11 34 -17 40 -14 19 12
79 -4 73 -20 -5 -12 -88 -31 -122 -28 -19 1 -62 -56 -62 -83 0 -14 9 -42 20
-64 11 -22 20 -53 20 -69 0 -47 15 -75 56 -103 22 -14 71 -54 109 -90 92 -86
224 -183 340 -251 28 -16 41 -25 30 -21 -11 4 -33 9 -49 12 -28 4 -29 3 -23
-26 4 -21 2 -32 -8 -36 -8 -3 -15 -12 -15 -20 0 -27 -81 -155 -102 -162 -22
-7 -37 6 -83 70 -11 16 -24 32 -30 37 -5 5 -22 19 -37 31 -15 13 -41 34 -59
48 -38 30 -65 60 -111 120 -30 39 -101 99 -120 100 -21 1 -59 -177 -59 -272 1
-96 -16 -162 -73 -281 -18 -40 -38 -85 -43 -102 -5 -16 -15 -29 -21 -28 -7 2
-12 -6 -12 -16 0 -11 -4 -23 -10 -26 -5 -3 -10 1 -10 10 0 29 -23 10 -49 -40
-14 -28 -30 -53 -35 -56 -5 -4 -6 -23 -3 -43 5 -29 1 -41 -19 -63 -13 -14 -24
-32 -24 -39 0 -8 -3 -14 -8 -14 -4 0 -13 -13 -20 -29 -7 -16 -26 -44 -42 -63
-16 -18 -37 -48 -45 -65 -9 -18 -21 -33 -28 -33 -7 0 -33 -21 -59 -45 -51 -49
-70 -85 -44 -85 13 0 14 -4 5 -23 -8 -17 -7 -39 2 -78 13 -62 15 -123 4 -192
-5 -34 -4 -56 6 -73 11 -22 11 -27 -1 -35 -12 -8 -11 -9 5 -7 12 2 21 12 23
26 4 23 21 31 23 10 6 -61 -7 -130 -36 -193 -17 -38 -38 -98 -45 -133 -9 -45
-20 -69 -39 -85 -14 -13 -37 -45 -51 -72 -22 -43 -25 -63 -26 -165 -3 -182
-55 -402 -148 -617 -87 -203 -274 -460 -396 -543 -19 -13 -37 -27 -40 -30 -3
-3 -40 -23 -82 -44 -43 -22 -78 -46 -78 -53 0 -7 -7 -13 -15 -13 -8 0 -15 -4
-15 -8 0 -5 -21 -19 -46 -31 -25 -13 -48 -30 -51 -37 -4 -10 -15 -13 -38 -8
-35 6 -162 -27 -201 -53 -13 -8 -55 -21 -95 -30 -40 -8 -81 -20 -93 -27 -25
-16 -189 -50 -228 -47 -15 1 -29 -3 -33 -9 -16 -27 -65 2 -65 39 0 15 -10 23
-39 31 -21 5 -55 24 -76 40 -21 17 -44 30 -51 30 -7 0 -19 6 -26 13 -17 16
-118 48 -130 41 -10 -7 -78 34 -78 47 0 5 -9 9 -19 9 -11 0 -23 5 -26 10 -7
11 -125 9 -125 -1 0 -4 -17 -14 -37 -22 -21 -9 -50 -27 -65 -41 -15 -14 -29
-26 -31 -26 -2 0 -26 -21 -53 -46 -27 -25 -68 -62 -91 -82 -24 -20 -73 -65
-109 -100 -37 -34 -70 -62 -75 -62 -5 0 -9 -40 -9 -90 l0 -90 4495 0 4495 0 0
4356 0 4355 -28 -20 c-50 -35 -293 -284 -348 -356 -29 -38 -67 -86 -84 -105
-40 -45 -95 -118 -150 -200 -25 -36 -47 -67 -50 -70 -15 -12 -90 -135 -90
-148 0 -12 -45 -75 -82 -113 -9 -10 -24 -31 -32 -48 -9 -16 -22 -34 -29 -38
-6 -4 -27 -26 -46 -48 -18 -22 -74 -83 -125 -135 -50 -52 -143 -153 -206 -224
-152 -171 -209 -227 -242 -238 -16 -6 -25 -14 -22 -19 6 -10 -34 -70 -66 -99
-32 -30 -80 -60 -95 -60 -12 0 -14 -6 -9 -25 l6 -26 -45 22 c-27 13 -43 27
-39 33 4 6 7 14 7 18 0 3 4 10 9 15 5 4 6 3 3 -3 -9 -15 39 -27 59 -16 13 7
10 13 -19 31 -46 28 -55 56 -28 85 12 12 21 30 21 40 0 15 9 16 75 11 41 -3
75 -3 75 -1 0 2 -17 10 -37 16 -43 14 -83 47 -83 67 0 9 -5 11 -12 7 -10 -6
-10 -4 0 7 6 7 12 24 12 38 0 15 7 35 15 45 8 11 15 32 15 47 0 14 7 32 15 39
8 7 15 19 15 26 0 8 6 11 17 7 10 -4 14 -2 10 4 -4 6 5 18 18 27 14 9 38 29
53 45 28 28 60 46 76 42 6 -1 20 3 32 9 16 9 35 9 74 1 57 -12 73 -8 48 12
-23 18 -29 44 -13 57 13 11 17 51 5 47 -3 -1 -16 6 -29 15 -24 17 -24 48 2 48
7 0 13 10 14 23 1 12 11 30 23 39 11 9 20 20 19 25 -3 20 15 52 37 63 13 8 24
16 24 20 0 4 11 5 25 2 29 -5 36 21 9 36 -11 6 -14 14 -8 23 5 8 7 22 6 31 -4
21 18 53 36 54 36 3 42 5 42 13 0 5 -9 13 -20 16 -11 4 -18 10 -15 15 3 5 -4
14 -15 20 -22 12 -29 73 -9 86 8 4 10 30 7 76 -3 39 -1 71 4 74 6 4 5 10 -3
15 -11 7 -9 9 6 10 l20 0 -20 8 c-18 7 -16 10 17 24 20 9 43 25 49 36 12 17
14 18 24 4 8 -11 20 -14 39 -9 15 4 24 11 21 15 -10 17 20 19 38 3 9 -8 20
-12 24 -8 10 10 -69 77 -84 72 -15 -6 -18 15 -4 29 5 6 12 20 16 33 5 17 2 22
-12 22 -14 1 -11 7 15 29 17 15 32 33 32 39 0 7 6 12 14 12 7 0 19 7 26 15 9
10 9 15 1 15 -6 0 -11 5 -11 10 0 6 7 10 15 10 8 0 15 -4 15 -10 0 -5 4 -10 9
-10 5 0 8 8 7 18 -1 22 -32 35 -55 22 -12 -6 -22 -5 -30 3 -9 9 -14 9 -20 -2
-7 -11 -10 -9 -16 8 -5 16 -12 20 -26 16 -11 -4 -19 -2 -19 4 0 6 -12 11 -26
11 -16 0 -23 -4 -18 -11 4 -7 0 -9 -14 -5 -13 4 -20 2 -19 -6 1 -44 -4 -58
-23 -58 -17 0 -20 -7 -22 -42 0 -24 -1 -49 -1 -55 1 -7 -3 -13 -8 -13 -5 0 -9
6 -9 13 0 7 -4 6 -10 -4 -6 -10 -6 -29 0 -49 13 -47 6 -48 -21 -4 -25 41 -37
31 -20 -18 17 -47 14 -60 -9 -53 -15 5 -20 2 -20 -10 0 -15 -3 -14 -17 3 -24
28 -59 33 -55 8 2 -11 -1 -15 -7 -11 -6 3 -11 1 -11 -5 0 -7 -8 -9 -21 -5 -14
5 -19 3 -15 -3 3 -6 2 -13 -4 -17 -11 -7 -40 18 -40 34 0 13 -16 13 -45 1 -18
-7 -18 -8 7 -15 34 -9 28 -22 -15 -34 -32 -9 -32 -9 13 -11 35 -1 41 -3 25
-10 -19 -9 -19 -9 2 -16 13 -3 20 -11 17 -16 -4 -6 2 -5 14 1 12 7 29 8 43 3
21 -8 21 -9 -9 -15 -43 -9 -40 -21 8 -37 41 -14 45 -29 7 -31 -21 0 -21 -1 -2
-10 14 -6 2 -7 -34 -3 -30 4 -61 13 -69 20 -7 8 -25 15 -40 15 -34 2 -34 2
-54 -6 -11 -4 -18 -3 -18 4 0 6 8 11 18 12 10 0 12 3 4 6 -6 2 -10 9 -7 13 3
5 1 11 -5 15 -5 3 -10 3 -10 -2 0 -4 -14 -9 -30 -10 -26 -2 -29 0 -21 15 7 13
4 19 -17 29 l-27 11 25 1 c23 2 22 3 -13 25 -25 15 -34 26 -25 29 7 3 -5 6
-27 6 l-40 1 24 19 c22 17 22 18 5 25 -16 7 -12 11 23 25 42 16 43 17 23 34
-23 19 -40 23 -22 5 20 -20 13 -32 -8 -13 -11 10 -20 21 -20 25 0 4 26 11 57
17 57 10 83 2 83 -25 0 -9 22 -22 37 -22 10 0 -6 60 -32 115 -19 42 -22 60
-15 79 7 19 5 28 -7 38 -9 7 -18 12 -20 11 -14 -11 -8 1 12 23 13 14 25 24 27
22 2 -2 17 7 34 19 36 26 44 18 38 -34 -2 -21 2 -38 14 -49 16 -17 17 -16 20
11 2 15 -1 31 -6 34 -5 3 -12 20 -15 37 -5 28 -4 31 13 27 11 -3 20 -13 20
-21 0 -12 4 -11 16 6 16 24 39 20 30 -5 -3 -8 -1 -11 4 -8 6 3 10 13 10 21 0
8 4 14 10 14 5 0 7 7 4 15 -9 23 6 18 28 -11 16 -20 23 -23 30 -12 8 10 11 10
15 0 7 -17 23 -5 17 12 -6 17 12 31 21 16 3 -5 11 -10 17 -10 6 0 3 9 -7 20
-10 11 -14 20 -9 21 39 5 52 1 77 -23 24 -25 27 -26 27 -8 0 11 -7 20 -15 20
-8 0 -15 7 -15 15 0 21 7 19 42 -10 40 -34 54 -32 29 4 -13 18 -18 36 -14 47
5 14 3 16 -13 9 -22 -9 -84 -21 -170 -34 -34 -5 -71 -14 -83 -21 -13 -6 -30
-9 -38 -6 -9 4 -21 3 -27 -2 -6 -5 -37 -14 -70 -21 -32 -7 -80 -24 -106 -37
-27 -13 -62 -27 -79 -30 -17 -4 -31 -10 -31 -14 0 -7 -68 -30 -90 -30 -9 0 -7
6 5 20 10 11 22 20 28 20 9 0 28 8 122 50 54 25 109 41 220 66 39 8 108 24
155 35 125 29 347 36 423 14 72 -21 114 -56 123 -101 3 -19 10 -34 14 -34 10
0 23 67 15 80 -3 5 10 21 29 35 31 23 34 29 23 46 -7 11 -23 19 -39 19 -30 0
-40 20 -10 21 12 0 11 3 -6 10 -13 5 -28 6 -33 3 -5 -3 -23 -2 -40 1 -22 5
-27 10 -20 19 6 7 8 16 4 19 -11 11 -23 8 -23 -7 0 -9 -8 -12 -25 -8 -27 5
-35 22 -10 22 23 0 18 17 -7 24 -36 9 -38 8 -38 -21 0 -25 -1 -25 -19 -9 -11
10 -17 24 -14 32 3 9 -2 14 -15 14 -15 0 -19 -5 -15 -20 3 -11 0 -20 -6 -20
-6 0 -11 9 -11 20 0 12 -7 20 -17 20 -13 0 -14 -3 -5 -12 16 -16 15 -28 -2
-28 -15 0 -30 27 -27 48 1 8 -14 12 -49 12 -37 0 -55 5 -70 20 -12 12 -33 20
-55 20 -19 0 -46 5 -60 12 -21 9 -28 9 -34 -1 -7 -10 -9 -10 -14 2 -3 8 -38
24 -77 36 -39 12 -73 28 -77 36 -3 8 -9 12 -14 9 -12 -7 -109 27 -109 38 0 4
-21 17 -47 28 -27 11 -56 25 -65 30 -10 6 -32 10 -50 10 -18 0 -49 10 -68 22
-19 12 -44 23 -55 24 -82 13 -97 18 -111 39 -9 13 -30 26 -49 29 -19 4 -35 12
-35 18 0 9 -3 9 -12 0 -15 -15 -65 -16 -74 -1 -3 6 -17 9 -30 6 -13 -2 -25 0
-27 6 -4 12 -74 39 -107 41 -14 0 -28 5 -31 9 -3 4 -29 11 -58 16 -58 9 -66
14 -58 36 8 20 61 20 78 -1 11 -14 14 -14 28 5 20 25 107 33 121 11 6 -9 24
-13 57 -11 26 1 49 4 51 6 10 10 -12 45 -29 45 -10 0 -19 5 -19 11 0 5 -8 9
-17 8 -29 -2 -41 0 -55 14 -21 18 -78 47 -94 47 -8 0 -23 9 -34 20 -14 14 -33
20 -68 20 -26 0 -52 4 -58 8 -5 5 -29 14 -54 21 -25 7 -68 24 -97 37 -28 13
-68 24 -88 24 -19 0 -63 11 -96 25 -34 13 -78 28 -98 31 -20 4 -45 13 -56 20
-11 8 -30 14 -42 14 -13 0 -23 5 -23 11 0 5 -5 7 -11 4 -5 -4 -24 0 -42 8 -37
17 -76 30 -78 25z m401 -227 c0 -5 10 -13 21 -16 25 -8 79 -54 79 -68 0 -9
-22 -7 -97 9 -41 8 -63 31 -42 46 11 7 11 11 2 15 -22 8 -14 23 12 23 14 0 25
-4 25 -9z m113 -128 c-7 -2 -19 -2 -25 0 -7 3 -2 5 12 5 14 0 19 -2 13 -5z
m337 -3 c0 -5 -9 -10 -20 -10 -11 0 -20 5 -20 10 0 6 9 10 20 10 11 0 20 -4
20 -10z m-210 -30 c12 -8 9 -10 -13 -10 -16 0 -26 4 -22 10 8 12 16 12 35 0z
m-78 -297 c12 -20 32 -50 43 -68 11 -17 32 -49 47 -71 15 -21 29 -52 31 -69 2
-16 9 -43 15 -58 21 -51 15 -59 -24 -28 -14 11 -20 21 -13 23 8 3 6 9 -5 20
-10 10 -12 19 -6 23 13 8 13 45 1 45 -5 0 -13 10 -17 23 -4 12 -17 35 -30 50
-13 16 -24 34 -24 42 0 7 -13 27 -29 44 -17 18 -28 38 -24 47 7 19 8 19 35
-23z m8 -169 c0 -2 -7 -4 -15 -4 -8 0 -15 4 -15 10 0 5 7 7 15 4 8 -4 15 -8
15 -10z m1135 -34 c-10 -11 -24 -20 -32 -20 -7 0 -13 -4 -13 -10 0 -5 -6 -7
-14 -4 -8 3 -14 -1 -13 -8 1 -41 -4 -58 -20 -58 -13 0 -14 -3 -5 -12 24 -24
11 -27 -25 -7 -21 12 -39 22 -41 24 -1 1 4 8 13 15 13 11 14 10 9 -4 -3 -9 -1
-16 5 -16 13 0 14 20 1 40 -11 18 5 40 31 40 11 0 16 5 13 13 -3 8 6 18 21 25
36 17 50 16 36 -2 -8 -10 -9 -16 -2 -21 6 -3 16 5 23 20 8 17 15 22 21 16 7
-7 4 -17 -8 -31z m-1055 1 c0 -6 -4 -13 -10 -16 -5 -3 -10 1 -10 9 0 9 5 16
10 16 6 0 10 -4 10 -9z m1130 -11 c0 -5 -4 -10 -10 -10 -5 0 -10 5 -10 10 0 6
5 10 10 10 6 0 10 -4 10 -10z m-40 -9 c0 -9 -28 -41 -35 -41 -3 0 1 11 7 25
11 25 28 34 28 16z m35 -31 c-3 -5 -11 -10 -16 -10 -6 0 -7 5 -4 10 3 6 11 10
16 10 6 0 7 -4 4 -10z m79 -22 c6 -5 1 -8 -11 -8 -13 0 -23 6 -23 13 0 20 14
31 19 15 2 -7 9 -16 15 -20z m-513 -11 c-8 -8 -11 -7 -11 4 0 9 3 19 7 23 4 4
9 2 11 -4 3 -7 -1 -17 -7 -23z m615 -8 c3 -5 -11 -9 -30 -9 -23 0 -36 5 -36
13 0 15 56 11 66 -4z m87 14 c-7 -2 -19 -2 -25 0 -7 3 -2 5 12 5 14 0 19 -2
13 -5z m-573 -13 c0 -5 -5 -10 -11 -10 -5 0 -7 5 -4 10 3 6 8 10 11 10 2 0 4
-4 4 -10z m-653 -6 c-3 -3 -12 -4 -19 -1 -8 3 -5 6 6 6 11 1 17 -2 13 -5z
m1233 -24 c0 -12 -24 -12 -60 0 -21 7 -19 8 18 9 23 1 42 -3 42 -9z m-1136
-102 c-3 -24 -15 -58 -26 -75 -16 -27 -17 -33 -5 -33 13 0 13 -5 4 -30 -6 -16
-17 -30 -25 -30 -9 0 -11 -7 -7 -19 5 -17 2 -20 -22 -18 -34 3 -40 39 -8 48
15 4 19 12 17 32 -2 19 2 27 13 27 8 0 15 8 15 18 0 10 3 22 7 26 9 8 14 33
14 69 0 16 6 27 14 27 11 0 13 -10 9 -42z m-99 -15 c-11 -8 -28 -19 -37 -24
-29 -16 -11 14 20 33 32 20 46 13 17 -9z m-350 -3 c3 -5 1 -10 -4 -10 -6 0
-11 5 -11 10 0 6 2 10 4 10 3 0 8 -4 11 -10z m195 6 c0 -3 -4 -8 -10 -11 -5
-3 -10 -1 -10 4 0 6 5 11 10 11 6 0 10 -2 10 -4z m-220 -36 c0 -5 -2 -10 -4
-10 -3 0 -8 5 -11 10 -3 6 -1 10 4 10 6 0 11 -4 11 -10z m1470 -11 c0 -6 -4
-7 -10 -4 -5 3 -10 11 -10 16 0 6 5 7 10 4 6 -3 10 -11 10 -16z m-1202 0 c-2
-6 -8 -10 -13 -10 -5 0 -11 4 -13 10 -2 6 4 11 13 11 9 0 15 -5 13 -11z m-222
-24 c-5 -18 -2 -25 9 -25 8 0 15 7 15 15 0 9 6 12 15 9 11 -5 13 -2 8 12 -4
12 -3 15 5 10 22 -14 12 -36 -23 -50 -33 -14 -37 -14 -70 7 -19 12 -34 26 -35
32 0 5 5 4 12 -3 17 -17 48 -15 48 3 0 8 5 15 11 15 7 0 9 -10 5 -25z m143 16
c8 -5 9 -11 3 -15 -5 -3 -15 1 -22 9 -14 16 -3 20 19 6z m1151 -1 c0 -5 -4
-10 -10 -10 -5 0 -10 5 -10 10 0 6 5 10 10 10 6 0 10 -4 10 -10z m-602 -18 c2
-7 -1 -11 -8 -10 -6 2 -20 -12 -30 -29 -9 -18 -23 -40 -31 -49 -7 -9 -14 -24
-14 -33 -1 -9 -2 -26 -3 -38 -1 -12 -11 -24 -22 -28 -12 -4 -20 -15 -20 -28 0
-20 -1 -20 -17 -4 -15 15 -16 19 -4 26 8 5 11 16 6 30 -6 21 8 30 20 11 3 -5
10 -10 16 -10 5 0 9 5 9 10 0 6 -7 10 -15 10 -16 0 -20 27 -6 49 5 7 14 11 20
7 6 -4 21 15 37 49 26 54 51 69 62 37z m-515 -7 c-3 -9 -8 -14 -10 -11 -3 3
-2 9 2 15 9 16 15 13 8 -4z m-33 -35 c0 -11 -7 -20 -15 -20 -13 0 -13 3 -3 20
7 11 14 20 15 20 2 0 3 -9 3 -20z m586 -48 c-12 -11 -18 7 -10 30 l8 23 4 -23
c2 -13 1 -26 -2 -30z m-686 12 c0 -8 -4 -12 -10 -9 -5 3 -10 10 -10 16 0 5 5
9 10 9 6 0 10 -7 10 -16z m20 -34 c0 -5 -7 -10 -15 -10 -8 0 -15 5 -15 10 0 6
7 10 15 10 8 0 15 -4 15 -10z m30 -10 c0 -5 -5 -10 -11 -10 -5 0 -7 5 -4 10 3
6 8 10 11 10 2 0 4 -4 4 -10z m26 -73 c1 -14 -7 -29 -18 -36 -27 -17 -34 -7
-15 20 9 11 13 28 10 35 -3 9 0 12 8 9 8 -3 15 -16 15 -28z m-202 17 c9 -3 16
-15 16 -25 0 -12 -5 -16 -15 -13 -8 4 -21 1 -29 -5 -20 -17 -27 -1 -9 25 17
27 16 26 37 18z m56 -18 c0 -3 -4 -8 -10 -11 -5 -3 -10 -1 -10 4 0 6 5 11 10
11 6 0 10 -2 10 -4z m37 -18 c-3 -8 -6 -5 -6 6 -1 11 2 17 5 13 3 -3 4 -12 1
-19z m759 -14 c-9 -9 -20 -13 -24 -9 -4 4 -1 10 6 12 6 3 12 12 12 21 0 12 3
13 11 5 9 -9 7 -16 -5 -29z m971 -5 c-6 -10 -13 -17 -16 -17 -23 2 -32 -4 -27
-17 3 -10 -1 -15 -12 -15 -28 0 -62 12 -62 21 0 20 36 49 62 49 16 0 28 5 28
10 0 6 7 6 19 -2 15 -9 17 -15 8 -29z m-1547 11 c11 -7 7 -10 -17 -10 -18 0
-33 5 -33 10 0 13 30 13 50 0z m-216 -21 c-8 -14 -24 -10 -24 6 0 9 6 12 15 9
8 -4 12 -10 9 -15z m75 -22 c1 -5 -3 -6 -8 -3 -5 3 -11 -3 -14 -14 -3 -11 -11
-20 -17 -20 -9 0 -7 8 4 25 9 13 16 32 17 42 0 16 1 16 9 -2 5 -11 9 -24 9
-28z m302 6 c-8 -15 -10 -15 -11 -2 0 17 10 32 18 25 2 -3 -1 -13 -7 -23z
m179 -5 c11 -23 11 -23 -6 -3 -11 14 -18 16 -21 8 -3 -7 -9 -13 -14 -13 -4 0
-6 7 -3 15 9 22 32 18 44 -7z m-540 -8 c0 -5 -2 -10 -4 -10 -3 0 -8 5 -11 10
-3 6 -1 10 4 10 6 0 11 -4 11 -10z m540 -41 c0 -5 -4 -9 -10 -9 -5 0 -10 7
-10 16 0 8 5 12 10 9 6 -3 10 -10 10 -16z m-651 -37 c-3 -1 -4 -14 -1 -27 6
-34 -21 -33 -36 0 -15 33 -15 35 3 35 9 0 15 9 15 23 0 22 1 22 13 -3 7 -14
10 -26 6 -28z m153 27 c14 1 29 -2 33 -8 7 -12 7 -12 -52 -15 -27 -1 -43 2
-43 9 0 17 11 25 24 18 6 -4 23 -6 38 -4z m968 -8 c0 -5 8 -12 18 -14 10 -3 6
-5 -10 -6 -19 -1 -28 4 -28 14 0 8 5 15 10 15 6 0 10 -4 10 -9z m-444 -23 c4
-7 3 -8 -4 -4 -7 4 -12 1 -12 -8 0 -21 -14 -20 -31 1 -8 9 -9 14 -4 11 6 -4
17 -3 25 3 19 11 17 11 26 -3z m419 -7 c3 -5 0 -13 -6 -16 -5 -4 -8 -13 -5
-21 3 -8 0 -11 -10 -7 -8 3 -13 12 -10 20 3 8 6 19 6 24 0 12 17 12 25 0z
m655 -51 c0 -13 -7 -20 -20 -20 -11 0 -20 5 -20 10 0 6 7 10 15 10 8 0 15 5
15 10 0 6 2 10 5 10 3 0 5 -9 5 -20z m-705 0 c3 -5 1 -10 -4 -10 -6 0 -11 5
-11 10 0 6 2 10 4 10 3 0 8 -4 11 -10z m-40 -20 c-3 -5 -11 -10 -16 -10 -6 0
-7 5 -4 10 3 6 11 10 16 10 6 0 7 -4 4 -10z m166 -30 c5 0 9 -4 9 -9 0 -12
-38 -2 -47 12 -4 7 0 8 11 4 10 -4 22 -7 27 -7z m574 0 c4 -6 -5 -10 -20 -10
-15 0 -24 4 -20 10 3 6 12 10 20 10 8 0 17 -4 20 -10z m-660 -29 c-3 -6 -11
-11 -17 -11 -6 0 -6 6 2 15 14 17 26 13 15 -4z m75 -11 c0 -5 -4 -10 -10 -10
-5 0 -10 5 -10 10 0 6 5 10 10 10 6 0 10 -4 10 -10z m-275 -30 c-10 -11 -21
-18 -23 -15 -3 3 3 12 14 20 27 20 30 18 9 -5z m195 -25 c0 -8 -4 -15 -10 -15
-5 0 -10 7 -10 15 0 8 5 15 10 15 6 0 10 -7 10 -15z m127 9 c-3 -3 -12 -4 -19
-1 -8 3 -5 6 6 6 11 1 17 -2 13 -5z m-397 -64 c-32 -24 -40 -16 -9 9 13 11 26
17 29 14 3 -2 -6 -13 -20 -23z m525 20 c3 -5 2 -10 -4 -10 -5 0 -13 5 -16 10
-3 6 -2 10 4 10 5 0 13 -4 16 -10z m-460 -20 c3 -5 1 -10 -4 -10 -6 0 -11 5
-11 10 0 6 2 10 4 10 3 0 8 -4 11 -10z m332 4 c-3 -3 -12 -4 -19 -1 -8 3 -5 6
6 6 11 1 17 -2 13 -5z m-809 -34 c-14 -22 -24 -19 -15 5 4 8 11 15 17 15 6 0
6 -7 -2 -20z m897 0 c-3 -5 -13 -10 -21 -10 -8 0 -14 5 -14 10 0 6 9 10 21 10
11 0 17 -4 14 -10z m205 -6 c0 -2 -7 -4 -15 -4 -8 0 -15 4 -15 10 0 5 7 7 15
4 8 -4 15 -8 15 -10z m-633 -11 c-9 -9 -19 -14 -23 -11 -10 10 6 28 24 28 15
0 15 -1 -1 -17z m68 7 c-3 -5 -13 -10 -21 -10 -8 0 -12 5 -9 10 3 6 13 10 21
10 8 0 12 -4 9 -10z m-260 -20 c-3 -5 -11 -10 -16 -10 -6 0 -7 5 -4 10 3 6 11
10 16 10 6 0 7 -4 4 -10z m290 0 c-3 -5 -11 -10 -16 -10 -6 0 -7 5 -4 10 3 6
11 10 16 10 6 0 7 -4 4 -10z m492 -6 c-3 -3 -12 -4 -19 -1 -8 3 -5 6 6 6 11 1
17 -2 13 -5z m-523 -10 c20 -8 11 -23 -12 -19 -9 1 -11 0 -4 -2 21 -8 13 -23
-12 -23 -41 0 -58 -10 -45 -26 6 -8 16 -11 23 -7 6 4 5 -1 -3 -10 -8 -10 -11
-20 -7 -24 3 -4 -6 -12 -21 -19 l-28 -12 35 -1 c29 -1 32 -3 17 -12 -9 -6 -15
-14 -12 -20 4 -5 0 -9 -7 -9 -8 -1 -5 -6 7 -15 17 -13 20 -13 28 0 5 10 16 13
34 9 18 -5 24 -3 19 4 -6 11 63 36 73 27 2 -3 -1 -5 -7 -5 -6 0 -9 -7 -6 -15
4 -10 0 -15 -12 -16 -18 0 -17 -1 1 -9 28 -12 37 -12 30 0 -3 6 -2 10 4 10 5
0 12 -4 15 -9 5 -8 95 -41 111 -41 3 0 0 6 -7 14 -7 8 -16 12 -20 9 -5 -2 -18
3 -30 11 -22 16 -22 16 10 16 20 0 31 4 27 10 -3 6 -18 10 -33 10 l-27 1 23
12 c12 7 19 16 16 20 -4 4 6 7 22 7 22 0 26 -3 14 -10 -12 -8 -9 -10 11 -10
14 0 36 -9 49 -20 13 -11 27 -20 32 -20 4 0 8 -5 8 -10 0 -7 -6 -7 -19 0 -25
13 -34 13 -26 0 3 -5 -1 -10 -9 -10 -14 0 -14 -3 -4 -20 17 -27 3 -36 -42 -23
-52 13 -69 -2 -38 -34 16 -17 18 -23 7 -23 -8 0 -20 5 -27 12 -9 9 -12 9 -12
0 0 -7 4 -12 9 -12 13 0 9 -53 -4 -62 -5 -4 -1 -10 10 -14 11 -5 26 -14 33
-21 7 -7 19 -13 27 -13 14 0 28 -27 20 -40 -3 -5 6 -20 20 -34 28 -28 33 -56
10 -56 -8 0 -14 -3 -13 -7 3 -18 -16 -43 -33 -43 -10 0 -19 -4 -19 -10 0 -5
-12 -10 -26 -10 -14 0 -23 -4 -19 -10 7 -11 -6 -13 -30 -4 -11 5 -13 9 -5 14
6 4 -22 7 -62 7 -40 1 -77 2 -83 3 -5 1 -28 1 -50 0 -36 -2 -34 -3 20 -11 33
-4 82 -9 108 -10 59 -3 74 -19 18 -19 -38 0 -40 -1 -29 -20 15 -24 5 -35 -19
-21 -14 8 -15 11 -3 11 35 1 -28 25 -72 26 -39 2 -46 0 -41 -13 5 -14 -1 -15
-43 -9 -27 4 -62 9 -79 10 -38 3 -66 16 -59 27 3 5 -2 9 -10 9 -13 0 -36 -28
-36 -44 0 -3 12 -6 26 -6 14 0 23 -4 19 -10 -7 -11 11 -14 67 -11 21 2 47 -4
60 -13 25 -18 63 -22 53 -6 -15 24 37 7 125 -40 l35 -19 -37 -1 c-27 0 -38 -4
-38 -15 0 -11 -5 -12 -26 -5 -23 9 -25 8 -19 -10 6 -19 1 -17 -45 11 -41 25
-48 34 -39 45 9 12 5 14 -27 15 -30 0 -34 2 -19 8 15 6 8 9 -30 13 -27 2 -52
1 -55 -3 -3 -4 -27 -14 -55 -22 l-50 -16 40 0 c46 -1 71 -14 61 -30 -4 -6 0
-11 8 -11 22 0 20 -17 -1 -24 -10 -3 2 -3 27 -1 25 3 39 2 31 -1 -11 -5 -11
-8 0 -15 10 -6 4 -9 -18 -9 -18 0 -33 -4 -33 -9 0 -5 -10 -7 -22 -4 -22 5 -22
5 -4 -9 17 -14 14 -15 -39 -22 -43 -5 -61 -3 -66 6 -5 7 -4 15 1 16 19 7 10
32 -11 32 -18 0 -19 2 -6 15 11 10 25 13 46 9 20 -4 31 -2 31 5 0 6 -7 11 -15
11 -8 0 -15 5 -15 11 0 13 -25 39 -38 39 -6 0 -9 7 -8 15 3 18 16 32 16 17 0
-7 4 -12 10 -12 17 0 -1 28 -23 34 -20 5 -20 6 -4 24 9 10 14 22 10 25 -3 4 1
7 10 7 14 0 14 3 1 28 -15 30 -17 53 -8 102 l7 32 71 -6 c39 -3 101 -8 137
-12 79 -7 126 11 207 80 l53 45 -21 21 c-24 24 -42 26 -34 5 4 -8 1 -15 -5
-15 -6 0 -11 -6 -11 -13 0 -18 -49 -64 -83 -76 -68 -26 -187 2 -187 43 0 21
30 29 49 13 40 -35 109 -27 151 18 13 14 29 25 37 25 7 0 13 4 13 9 0 12 -84
45 -88 33 -1 -5 -21 -5 -50 0 -26 5 -76 13 -112 16 l-65 7 25 18 c13 9 30 17
38 17 7 0 10 5 7 10 -3 6 -1 10 5 10 6 0 9 4 5 9 -3 5 6 18 20 29 14 11 25 24
25 30 0 5 7 15 15 22 8 7 12 17 9 22 -3 5 3 12 14 15 13 3 18 11 15 19 -3 9 1
14 12 14 9 0 13 -4 10 -10 -3 -5 0 -10 7 -10 17 0 46 19 33 21 -5 1 -14 3 -20
4 -5 2 -16 3 -23 4 -22 2 -2 21 22 21 12 0 33 11 46 25 25 27 30 28 54 19z
m158 -10 c-12 -8 -27 -12 -32 -9 -17 10 -1 25 28 25 l26 0 -22 -16z m-255 -10
c-3 -3 -12 -4 -19 -1 -8 3 -5 6 6 6 11 1 17 -2 13 -5z m340 0 c-3 -3 -12 -4
-19 -1 -8 3 -5 6 6 6 11 1 17 -2 13 -5z m-94 -31 c-7 -2 -21 -2 -30 0 -10 3
-4 5 12 5 17 0 24 -2 18 -5z m262 -23 c13 -6 15 -9 5 -9 -8 0 -22 4 -30 9 -18
12 -2 12 25 0z m-196 -9 c9 -6 10 -11 2 -15 -15 -10 -53 3 -46 15 8 11 26 11
44 0z m71 -32 c0 -6 -7 -9 -15 -5 -8 3 -15 3 -15 0 0 -2 10 -9 23 -14 21 -8
21 -9 -5 -9 -15 -1 -30 4 -33 9 -3 6 -16 11 -28 11 -17 1 -15 3 8 9 45 12 65
11 65 -1z m127 -55 c-3 -3 -12 -4 -19 -1 -8 3 -5 6 6 6 11 1 17 -2 13 -5z
m-757 -69 c-1 -6 9 -12 22 -15 22 -6 22 -7 -10 -22 -38 -20 -70 -14 -51 8 8
10 8 14 0 14 -18 0 -13 18 7 23 23 6 34 3 32 -8z m555 -45 c3 -6 -1 -7 -9 -4
-18 7 -21 14 -7 14 6 0 13 -4 16 -10z m-605 -24 c0 -2 -13 -20 -30 -41 -16
-21 -30 -32 -30 -24 0 7 12 26 27 41 26 27 33 32 33 24z m815 -16 c3 -5 -1
-10 -9 -10 -9 0 -16 5 -16 10 0 6 4 10 9 10 6 0 13 -4 16 -10z m-70 -70 c3 -6
-1 -7 -9 -4 -18 7 -21 14 -7 14 6 0 13 -4 16 -10z m-805 -10 c0 -5 -4 -10 -10
-10 -5 0 -10 -5 -10 -10 0 -6 -7 -22 -17 -36 -12 -18 -18 -22 -24 -12 -4 7 -3
18 3 25 6 7 7 13 2 13 -11 0 37 39 49 40 4 0 7 -4 7 -10z m-195 -90 c-3 -5
-16 -10 -28 -9 -21 0 -21 1 -2 9 28 12 37 12 30 0z m-16 -41 c6 9 9 8 13 -6 4
-15 -2 -18 -29 -20 -36 -2 -36 -2 -27 21 5 13 9 14 21 4 11 -9 16 -9 22 1z
m151 -119 c0 -5 -4 -10 -10 -10 -5 0 -10 5 -10 10 0 6 5 10 10 10 6 0 10 -4
10 -10z m7 -57 c-8 -9 -21 -13 -27 -11 -9 3 -8 9 4 21 10 9 22 14 28 11 6 -4
4 -12 -5 -21z m-247 -19 c0 -2 -9 -4 -21 -4 -11 0 -18 4 -14 10 5 8 35 3 35
-6z m485 -24 c3 -6 -1 -7 -9 -4 -18 7 -21 14 -7 14 6 0 13 -4 16 -10z m340 0
c3 -5 -1 -10 -9 -10 -9 0 -16 5 -16 10 0 6 4 10 9 10 6 0 13 -4 16 -10z m-565
-10 c0 -5 12 -11 28 -11 l27 -1 -30 -8 c-25 -6 -26 -8 -7 -9 13 0 21 -5 18
-10 -4 -5 -24 -4 -48 2 -34 8 -38 12 -22 18 13 5 14 8 4 8 -13 1 -13 2 0 11
19 13 30 13 30 0z m103 -30 c-3 -11 -11 -20 -18 -20 -8 0 -22 -3 -32 -6 -12
-4 -9 2 10 20 34 31 47 33 40 6z m-105 -38 c6 -18 -15 -14 -22 4 -4 10 -1 14
6 12 6 -2 14 -10 16 -16z m-1178 -12 c0 -5 -9 -10 -21 -10 -11 0 -17 5 -14 10
3 6 13 10 21 10 8 0 14 -4 14 -10z m1145 1 c3 -5 1 -12 -5 -16 -5 -3 -10 1
-10 9 0 18 6 21 15 7z m85 -18 c-1 -20 -16 -31 -30 -23 -8 5 -35 7 -60 5 -40
-4 -38 -3 15 9 78 18 75 17 75 9z m-1225 -17 c-30 -20 -69 -31 -60 -16 8 13
42 28 65 29 10 1 8 -3 -5 -13z m320 -48 c-28 -29 -51 -55 -52 -57 -2 -2 -5 -2
-8 1 -8 7 84 108 98 108 6 0 -11 -24 -38 -52z m435 3 c0 -18 -18 -21 -30 -6
-10 13 -9 15 9 15 11 0 21 -4 21 -9z m-1240 -60 c0 -5 -12 -11 -27 -13 -16 -2
-27 -8 -25 -15 1 -7 -7 -13 -17 -13 -11 0 -23 -4 -26 -10 -8 -13 -25 -13 -25
0 0 6 8 13 18 17 9 3 24 12 32 18 13 11 35 20 63 24 4 0 7 -3 7 -8z m-2770
-32 c0 -5 -4 -9 -10 -9 -5 0 -10 7 -10 16 0 8 5 12 10 9 6 -3 10 -10 10 -16z
m2910 3 c0 -13 -12 -22 -22 -16 -10 6 -1 24 13 24 5 0 9 -4 9 -8z m-156 -26
c-1 -9 6 -16 15 -16 27 0 31 -10 13 -31 -21 -25 -45 -25 -37 0 3 10 1 31 -5
46 -8 20 -7 26 2 22 7 -2 12 -12 12 -21z m305 13 c32 -11 42 -29 17 -29 -8 0
-21 -9 -29 -20 -8 -11 -17 -17 -21 -13 -4 4 -4 0 0 -10 5 -13 1 -17 -21 -17
-23 0 -26 2 -15 15 10 12 9 15 -8 15 -11 0 -22 -5 -24 -11 -3 -9 -10 -9 -27 0
-26 14 -27 13 30 51 51 33 55 34 98 19z m-162 -25 c-3 -3 -12 -4 -19 -1 -8 3
-5 6 6 6 11 1 17 -2 13 -5z m536 -29 c-3 -9 -8 -14 -10 -11 -3 3 -2 9 2 15 9
16 15 13 8 -4z m1488 -304 c80 -90 107 -127 99 -135 -8 -8 -14 -6 -21 6 -26
47 -145 185 -251 294 -65 66 -118 125 -118 130 0 14 172 -160 291 -295z
m-1843 277 c-3 -14 -18 -28 -30 -28 -4 0 0 9 9 20 20 23 24 25 21 8z m477 -63
c-8 -21 -18 -35 -21 -32 -3 3 2 22 11 42 10 19 20 34 22 31 2 -2 -3 -21 -12
-41z m927 -305 c8 -117 8 -180 1 -215 -10 -49 -11 -48 -12 45 -1 112 -16 289
-34 413 -7 48 -11 90 -8 93 12 12 41 -177 53 -336z m235 228 c44 -57 101 -134
127 -173 25 -38 49 -74 54 -80 21 -27 54 -87 49 -91 -2 -3 -26 30 -52 73 -63
102 -105 161 -180 253 -34 41 -70 88 -81 105 -37 58 4 14 83 -87z m-143 -52
c59 -175 99 -318 102 -366 4 -49 -3 -35 -24 45 -41 161 -74 274 -105 360 -20
55 -36 105 -36 110 0 22 29 -45 63 -149z m-1837 138 c-3 -3 -12 -4 -19 -1 -8
3 -5 6 6 6 11 1 17 -2 13 -5z m264 -27 c-10 -9 -11 -8 -5 6 3 10 9 15 12 12 3
-3 0 -11 -7 -18z m-291 3 c0 -5 -8 -10 -17 -10 -15 0 -16 2 -3 10 19 12 20 12
20 0z m489 3 c0 -5 -4 -17 -9 -28 -8 -18 -9 -17 -9 8 -1 15 4 27 9 27 6 0 10
-3 9 -7z m481 -18 c0 -8 -4 -15 -10 -15 -5 0 -10 7 -10 15 0 8 5 15 10 15 6 0
10 -7 10 -15z m529 -57 c1 -10 -3 -18 -9 -18 -5 0 -10 17 -9 38 0 30 2 33 9
17 5 -11 9 -28 9 -37z m-687 10 c-8 -8 -9 -4 -5 13 4 13 8 18 11 10 2 -7 -1
-18 -6 -23z m241 5 c14 -28 13 -53 -3 -53 -4 0 -10 18 -12 40 -2 22 -2 40 -1
40 1 0 9 -12 16 -27z m-1283 7 c0 -5 -2 -10 -4 -10 -3 0 -8 5 -11 10 -3 6 -1
10 4 10 6 0 11 -4 11 -10z m47 -16 c-3 -3 -12 -4 -19 -1 -8 3 -5 6 6 6 11 1
17 -2 13 -5z m905 -16 c-7 -7 -12 -8 -12 -2 0 14 12 26 19 19 2 -3 -1 -11 -7
-17z m253 -48 c0 -33 -3 -60 -7 -60 -4 0 -5 7 -1 17 5 13 2 15 -18 10 -22 -6
-23 -5 -6 8 16 11 18 21 12 54 -5 32 -4 40 7 36 9 -4 13 -24 13 -65z m-446 15
c6 3 11 2 11 -4 0 -19 -15 -19 -38 -1 -12 10 -22 22 -22 26 0 4 9 -1 19 -10
11 -10 25 -15 30 -11z m368 3 c-3 -8 -6 -5 -6 6 -1 11 2 17 5 13 3 -3 4 -12 1
-19z m795 -20 c-7 -7 -12 -8 -12 -2 0 14 12 26 19 19 2 -3 -1 -11 -7 -17z
m-672 -5 c0 -14 -2 -15 -9 -4 -5 7 -14 10 -20 7 -6 -4 -11 -2 -11 3 0 6 9 11
20 11 12 0 20 -7 20 -17z m-540 -3 c0 -5 -4 -10 -10 -10 -5 0 -10 5 -10 10 0
6 5 10 10 10 6 0 10 -4 10 -10z m630 -9 c6 -10 10 -9 19 5 10 18 10 18 11 -3
0 -12 -5 -23 -11 -25 -6 -2 -13 -23 -15 -47 -4 -50 -13 -67 -16 -30 -3 50 -15
89 -28 89 -5 0 -7 6 -4 14 6 17 32 15 44 -3z m-459 -75 c-20 -54 -51 -82 -51
-46 0 12 5 18 10 15 6 -3 19 15 30 41 26 61 35 53 11 -10z m530 35 c14 22 10
-5 -6 -42 l-14 -34 1 50 c0 28 3 41 5 31 4 -15 7 -16 14 -5z m503 -68 c-4 -49
-7 -107 -6 -130 1 -23 -2 -45 -8 -48 -9 -6 -16 44 -12 85 7 63 25 180 29 180
2 0 1 -39 -3 -87z m-1409 47 c-10 -11 -23 -20 -28 -20 -6 0 0 11 13 25 27 29
42 25 15 -5z m756 -11 l-9 -34 -1 31 c-1 17 2 34 6 37 12 13 14 -1 4 -34z
m-411 17 c0 -3 -4 -8 -10 -11 -5 -3 -10 -1 -10 4 0 6 5 11 10 11 6 0 10 -2 10
-4z m1780 -6 c0 -5 -4 -10 -10 -10 -5 0 -10 5 -10 10 0 6 5 10 10 10 6 0 10
-4 10 -10z m-1113 -77 c-3 -10 -5 -4 -5 12 0 17 2 24 5 18 2 -7 2 -21 0 -30z
m-561 -15 c-9 -5 -16 -14 -16 -19 0 -6 4 -8 8 -5 10 6 15 -61 6 -75 -3 -6 -11
-3 -20 8 -12 16 -13 14 -9 -17 l5 -35 -11 33 c-7 24 -7 38 1 47 6 8 11 24 9
37 -1 13 1 31 6 41 6 14 10 15 22 6 12 -11 12 -14 -1 -21z m-109 -14 c-3 -3
-12 -4 -19 -1 -8 3 -5 6 6 6 11 1 17 -2 13 -5z m-3577 -24 c0 -19 -20 -27 -33
-13 -8 7 11 33 24 33 5 0 9 -9 9 -20z m3770 16 c0 -3 -4 -8 -10 -11 -5 -3 -10
-1 -10 4 0 6 5 11 10 11 6 0 10 -2 10 -4z m60 -53 c0 -21 -20 -55 -20 -35 0 6
-7 12 -15 12 -13 0 -14 4 -5 20 13 25 40 26 40 3z m57 -19 c1 -28 -2 -34 -15
-32 -21 4 -28 48 -10 59 21 14 24 11 25 -27z m118 -43 c3 -5 1 -12 -5 -16 -5
-3 -10 1 -10 9 0 18 6 21 15 7z m-224 -28 c-8 -15 -10 -15 -11 -2 0 17 10 32
18 25 2 -3 -1 -13 -7 -23z m86 -5 c-3 -8 -6 -5 -6 6 -1 11 2 17 5 13 3 -3 4
-12 1 -19z m291 -13 c0 -31 -22 -28 -26 3 -2 14 2 22 11 22 9 0 15 -10 15 -25z
m-398 -10 c0 -2 -9 -9 -20 -15 -15 -8 -20 -8 -20 3 0 7 9 13 20 14 11 1 20 0
20 -2z m130 -30 c0 -8 -4 -17 -10 -20 -6 -4 -10 5 -10 20 0 15 4 24 10 20 6
-3 10 -12 10 -20z m-153 -47 c-3 -8 -6 -5 -6 6 -1 11 2 17 5 13 3 -3 4 -12 1
-19z m425 -80 c2 -20 0 -34 -4 -32 -4 3 -7 26 -7 52 1 49 5 42 11 -20z m-387
23 c-3 -6 -11 -11 -17 -11 -6 0 -6 6 2 15 14 17 26 13 15 -4z m27 -13 c-7 -7
-12 -8 -12 -2 0 14 12 26 19 19 2 -3 -1 -11 -7 -17z m914 -64 c-12 -48 -22
-23 -12 29 9 42 12 47 14 23 2 -15 1 -39 -2 -52z m-729 4 c-3 -8 -6 -5 -6 6
-1 11 2 17 5 13 3 -3 4 -12 1 -19z m-4867 -188 c0 -5 -2 -10 -4 -10 -3 0 -8 5
-11 10 -3 6 -1 10 4 10 6 0 11 -4 11 -10z m-49 -277 c18 -5 25 -23 13 -35 -3
-3 -14 -4 -25 -1 -15 4 -19 13 -18 47 1 25 3 32 6 17 3 -13 13 -26 24 -28z
m-11 -92 c0 -6 -4 -13 -10 -16 -5 -3 -10 1 -10 9 0 9 5 16 10 16 6 0 10 -4 10
-9z m-116 -37 c4 -9 4 -19 2 -22 -10 -9 -36 8 -36 23 0 20 26 19 34 -1z m-144
-151 c0 -20 -3 -24 -11 -16 -7 7 -9 19 -6 27 10 24 17 19 17 -11z m3018 10
c12 -3 22 -12 22 -21 0 -12 -10 -14 -52 -9 -29 3 -66 13 -83 22 -28 15 -28 16
-5 12 14 -3 34 -1 45 3 11 5 27 6 35 3 8 -3 25 -8 38 -10z m-3338 -173 c0 -5
-2 -10 -4 -10 -3 0 -8 5 -11 10 -3 6 -1 10 4 10 6 0 11 -4 11 -10z m30 -56 c0
-8 -4 -14 -10 -14 -5 0 -10 9 -10 21 0 11 5 17 10 14 6 -3 10 -13 10 -21z
m-34 -11 c-10 -10 -19 5 -10 18 6 11 8 11 12 0 2 -7 1 -15 -2 -18z m75 -63
c25 -14 25 -50 1 -50 -28 0 -55 33 -40 48 15 15 15 15 39 2z m2206 -316 c-3
-3 -12 -4 -19 -1 -8 3 -5 6 6 6 11 1 17 -2 13 -5z m423 -260 c0 -2 -9 0 -20 6
-11 6 -20 13 -20 16 0 2 9 0 20 -6 11 -6 20 -13 20 -16z m70 -36 c0 -14 -16
-9 -36 13 -19 21 -19 21 9 8 15 -7 27 -16 27 -21z m1040 -588 c0 -5 -2 -10 -4
-10 -3 0 -8 5 -11 10 -3 6 -1 10 4 10 6 0 11 -4 11 -10z m145 -80 c3 -5 2 -10
-4 -10 -5 0 -13 5 -16 10 -3 6 -2 10 4 10 5 0 13 -4 16 -10z m384 -227 c21
-13 22 -17 8 -24 -21 -12 -47 -1 -40 17 3 8 -1 14 -10 14 -8 0 -17 -5 -19 -12
-3 -8 -9 -8 -24 0 -17 10 -17 11 -1 12 9 0 17 5 17 11 0 12 35 3 69 -18z
m-649 7 c0 -5 -4 -10 -9 -10 -6 0 -13 5 -16 10 -3 6 1 10 9 10 9 0 16 -4 16
-10z m90 -11 c0 -5 -7 -9 -15 -9 -8 0 -15 7 -15 15 0 9 6 12 15 9 8 -4 15 -10
15 -15z m64 6 c4 -13 2 -14 -14 -5 -23 13 -26 20 -6 20 8 0 16 -7 20 -15z
m536 -41 c0 -10 6 -14 15 -10 18 6 102 -31 175 -78 50 -32 57 -51 9 -26 -11 7
-19 7 -19 1 0 -5 6 -12 13 -14 6 -3 -4 -3 -23 0 -19 3 -42 11 -50 18 -8 7 -32
18 -53 25 -20 6 -35 15 -32 20 2 4 -9 10 -25 13 -35 7 -60 45 -39 58 21 13 29
11 29 -7z m-1565 -273 c-9 -16 -25 -3 -18 15 4 10 9 12 15 6 6 -6 7 -15 3 -21z
m3887 -71 c20 -6 47 -23 59 -38 18 -24 20 -35 15 -92 -3 -36 -9 -82 -12 -103
l-7 -38 49 31 49 32 112 -7 c193 -13 177 -16 185 30 4 22 10 57 13 78 9 58 34
77 103 77 60 0 217 -31 252 -50 40 -22 42 -40 21 -243 -31 -295 -61 -662 -61
-737 0 -43 -4 -55 -27 -77 -26 -23 -33 -25 -89 -20 -33 3 -117 19 -185 35 -68
16 -178 39 -244 52 -148 27 -189 44 -228 92 l-30 37 -19 -24 c-23 -30 -65 -32
-208 -10 -52 8 -98 15 -102 15 -3 0 -20 11 -37 26 -29 24 -31 24 -56 8 -20
-13 -54 -18 -139 -21 -103 -3 -116 -1 -157 20 l-45 24 -27 -23 c-15 -13 -46
-28 -70 -34 -91 -22 -197 -53 -302 -89 -60 -21 -128 -43 -150 -49 -22 -7 -71
-21 -109 -32 -81 -24 -117 -25 -155 -5 -28 14 -29 14 -53 -23 -26 -39 -41 -48
-229 -143 -131 -66 -177 -74 -216 -37 -18 17 -23 32 -23 73 0 99 60 286 138
427 16 29 46 86 67 126 21 39 52 87 69 105 41 45 136 107 162 107 11 0 31 11
43 24 28 30 154 93 198 99 18 3 41 13 50 23 25 24 157 84 202 91 20 3 45 13
56 23 30 26 173 80 212 80 18 0 46 9 61 19 27 20 190 71 224 71 10 0 27 -5 38
-12 16 -10 24 -9 49 10 39 29 126 48 281 61 69 6 141 13 160 15 19 1 44 3 55
4 11 1 37 -3 57 -8z m-3780 -302 c-7 -7 -12 -19 -12 -28 0 -8 -8 -20 -18 -26
-16 -11 -18 -9 -14 18 3 19 -1 34 -9 39 -9 6 -1 9 26 9 30 0 36 -3 27 -12z
m-70 -120 c-15 -15 -26 -4 -18 18 5 13 9 15 18 6 9 -9 9 -15 0 -24z m-39 -193
c-7 -21 -13 -19 -13 6 0 11 4 18 10 14 5 -3 7 -12 3 -20z m-53 -87 c0 -19 -38
-78 -50 -78 -14 0 -13 7 12 51 22 39 38 50 38 27z m1675 -443 c1 -29 8 -60 17
-75 32 -48 56 -116 67 -189 12 -76 23 -101 46 -101 8 0 47 14 88 30 53 21 92
30 132 30 48 0 63 5 95 30 54 43 101 60 164 60 42 0 64 6 92 25 58 39 124 33
148 -14 26 -49 -21 -119 -107 -160 l-48 -23 20 -22 c11 -12 24 -36 27 -54 5
-27 -1 -42 -42 -102 -26 -38 -58 -77 -71 -85 -13 -9 -35 -33 -49 -55 -21 -32
-34 -41 -75 -49 -77 -17 -123 -14 -144 9 -13 15 -31 20 -65 20 -65 0 -139 24
-200 65 -88 59 -172 47 -251 -37 -45 -49 -127 -177 -199 -312 -35 -66 -81
-137 -101 -157 -57 -57 -169 -79 -177 -36 -7 36 9 64 98 177 50 63 99 131 109
150 71 134 139 252 170 295 33 45 36 55 37 120 1 39 11 107 24 155 14 49 23
107 22 137 -3 81 30 142 108 198 51 36 65 29 65 -30z m-1855 -160 c0 -6 14
-23 31 -38 18 -15 29 -30 26 -33 -3 -4 -18 6 -32 20 -14 14 -29 26 -34 26 -12
0 -32 50 -25 61 6 11 33 -18 34 -36z m-1920 -730 c0 -8 -4 -15 -10 -15 -5 0
-10 7 -10 15 0 8 5 15 10 15 6 0 10 -7 10 -15z m380 -185 c0 -5 -4 -10 -9 -10
-6 0 -13 5 -16 10 -3 6 1 10 9 10 9 0 16 -4 16 -10z m-110 -60 c0 -5 -4 -10
-9 -10 -5 0 -18 -3 -28 -7 -16 -6 -16 -5 -4 10 15 19 41 23 41 7z"/>
<path d="M7310 9008 c0 -9 5 -20 10 -23 13 -8 13 5 0 25 -8 13 -10 13 -10 -2z"/>
<path d="M7036 7839 c4 -8 -4 -9 -27 -5 l-34 6 35 -14 c43 -18 53 -19 45 -6
-11 19 10 10 28 -11 11 -12 25 -18 33 -15 9 3 20 6 25 6 6 0 7 5 4 10 -3 6
-18 10 -33 10 -15 0 -36 7 -46 15 -23 18 -40 20 -30 4z"/>
<path d="M6915 7831 c-16 -7 -13 -9 18 -13 38 -4 50 5 21 16 -9 3 -16 6 -17 5
-1 0 -11 -4 -22 -8z"/>
<path d="M7025 7801 c-3 -5 2 -11 10 -15 8 -3 17 -1 20 3 3 5 -2 11 -10 15 -8
3 -17 1 -20 -3z"/>
<path d="M7106 7751 c10 -10 21 -17 23 -15 6 6 -20 34 -32 34 -6 0 -2 -8 9
-19z"/>
<path d="M6990 7470 c0 -5 7 -10 15 -10 8 0 15 5 15 10 0 6 -7 10 -15 10 -8 0
-15 -4 -15 -10z"/>
<path d="M6697 7453 c-4 -3 -7 -13 -7 -22 1 -13 3 -13 11 2 11 19 8 33 -4 20z"/>
<path d="M6797 7413 c-12 -12 -7 -22 8 -17 8 4 15 10 15 15 0 11 -14 12 -23 2z"/>
<path d="M6626 7370 c6 -6 21 -6 39 -1 30 9 30 9 -9 10 -26 1 -37 -2 -30 -9z"/>
<path d="M6708 7223 c7 -3 16 -2 19 1 4 3 -2 6 -13 5 -11 0 -14 -3 -6 -6z"/>
<path d="M5130 7010 c0 -5 7 -7 15 -4 8 4 15 8 15 10 0 2 -7 4 -15 4 -8 0 -15
-4 -15 -10z"/>
<path d="M5098 7002 c-10 -2 -18 -8 -18 -13 0 -13 27 -11 35 2 9 13 4 16 -17
11z"/>
<path d="M4827 3509 c7 -7 15 -10 18 -7 3 3 -2 9 -12 12 -14 6 -15 5 -6 -5z"/>
<path d="M5190 9791 c0 -29 72 -61 138 -61 17 0 32 -4 32 -8 0 -12 73 -33 80
-23 3 4 18 0 33 -9 20 -12 24 -20 15 -23 -10 -4 -7 -11 10 -25 12 -11 22 -27
22 -36 0 -9 6 -16 13 -16 8 0 27 -7 44 -15 16 -8 49 -17 73 -20 24 -3 50 -11
58 -17 11 -10 13 0 10 65 l-3 77 -28 -6 c-15 -3 -34 -1 -41 5 -7 6 -39 13 -72
17 -32 4 -68 13 -79 20 -11 8 -45 14 -77 14 -32 0 -58 4 -58 10 0 6 -9 10 -20
10 -11 0 -20 3 -20 8 0 4 -14 15 -31 25 -32 18 -99 23 -99 8z"/>
<path d="M372 9638 c6 -18 28 -21 28 -4 0 9 -7 16 -16 16 -9 0 -14 -5 -12 -12z"/>
<path d="M427 9633 c-18 -5 -18 -6 -1 -24 25 -28 54 -25 54 6 0 25 -11 29 -53
18z"/>
<path d="M6850 9506 c0 -2 7 -6 15 -10 8 -3 15 -1 15 4 0 6 -7 10 -15 10 -8 0
-15 -2 -15 -4z"/>
<path d="M1120 9481 c0 -16 19 -23 40 -16 30 10 24 25 -10 25 -16 0 -30 -4
-30 -9z"/>
<path d="M5292 9465 c15 -9 40 -16 55 -17 15 -1 38 -10 49 -20 13 -12 48 -23
89 -29 89 -12 115 -19 115 -30 0 -5 8 -9 18 -10 14 0 14 -2 -3 -9 -16 -7 -11
-9 22 -9 30 -1 46 -7 56 -21 8 -11 17 -17 20 -13 11 10 8 71 -3 78 -16 10 -12
38 5 31 10 -3 15 1 15 13 0 12 -7 17 -22 16 -13 -1 -42 6 -65 16 -36 15 -43
16 -43 4 0 -8 5 -14 12 -12 6 1 14 -6 16 -16 3 -16 -1 -17 -35 -11 -21 3 -53
13 -71 21 -17 9 -61 16 -97 17 -36 0 -65 4 -65 9 0 4 -21 7 -47 7 -48 -1 -48
-1 -21 -15z m418 -119 c0 -3 -4 -8 -10 -11 -5 -3 -10 -1 -10 4 0 6 5 11 10 11
6 0 10 -2 10 -4z"/>
<path d="M7458 9423 c12 -2 32 -2 45 0 12 2 2 4 -23 4 -25 0 -35 -2 -22 -4z"/>
<path d="M5140 9410 c0 -5 10 -10 23 -10 18 0 19 2 7 10 -19 13 -30 13 -30 0z"/>
<path d="M5200 9386 c0 -9 8 -16 18 -16 9 0 27 -3 40 -6 16 -5 22 -2 22 10 0
10 -9 16 -24 16 -13 0 -31 3 -40 6 -11 4 -16 1 -16 -10z"/>
<path d="M5375 9330 c22 -11 46 -20 53 -20 6 0 12 -4 12 -9 0 -12 45 -24 104
-27 27 -1 52 -6 55 -11 3 -4 22 -9 41 -11 19 -1 37 -8 41 -14 4 -7 10 -4 17 8
14 24 -4 40 -56 49 -23 4 -42 10 -42 15 0 8 -60 21 -125 26 -22 2 -62 5 -90 8
l-50 6 40 -20z"/>
<path d="M5736 9292 c-9 -18 -15 -39 -13 -45 2 -7 12 3 21 21 9 18 15 39 13
45 -2 7 -12 -3 -21 -21z"/>
<path d="M6205 9200 c3 -5 8 -10 11 -10 2 0 4 5 4 10 0 6 -5 10 -11 10 -5 0
-7 -4 -4 -10z"/>
<path d="M5458 9193 c7 -3 16 -2 19 1 4 3 -2 6 -13 5 -11 0 -14 -3 -6 -6z"/>
<path d="M5060 9150 c0 -5 10 -15 23 -21 12 -7 32 -23 44 -36 12 -12 34 -23
48 -23 14 0 25 -4 25 -8 0 -10 68 -32 99 -32 11 0 21 -4 21 -9 0 -5 27 -14 60
-22 73 -16 84 -41 18 -39 -24 1 -49 1 -55 1 -18 -1 -16 -26 2 -41 8 -7 15 -21
15 -31 0 -16 8 -19 53 -20 l52 -1 -49 -17 c-28 -9 -51 -22 -53 -27 -5 -15 43
-37 66 -31 24 6 29 -11 6 -19 -17 -7 -147 15 -155 25 -3 4 -48 17 -100 30 -52
13 -99 28 -104 32 -15 14 -36 10 -36 -5 0 -8 14 -17 33 -21 17 -4 37 -11 42
-15 14 -11 132 -50 150 -50 8 0 15 -4 15 -9 0 -5 17 -12 37 -16 20 -4 46 -13
57 -21 23 -16 66 -19 66 -4 0 6 8 10 18 10 16 1 16 1 0 14 -24 18 -23 30 3 23
18 -5 20 -2 15 16 -3 12 -6 25 -6 30 0 4 -7 7 -16 7 -8 0 -12 5 -8 11 3 6 15
9 25 6 10 -3 22 -1 25 4 3 5 0 9 -5 9 -19 0 -12 22 9 27 11 3 20 12 20 19 0 8
-9 14 -20 14 -11 0 -20 5 -20 10 0 6 -10 15 -22 20 -33 13 -3 11 77 -4 65 -13
71 -13 88 5 22 23 22 31 -3 47 -11 7 -20 8 -20 3 0 -5 -30 -1 -67 9 -38 10
-67 23 -66 29 2 5 -10 10 -25 9 -15 0 -52 7 -82 16 -30 9 -69 16 -87 16 -19 0
-50 12 -76 30 -25 17 -51 30 -59 30 -8 0 -23 7 -34 15 -22 17 -44 19 -44 5z"/>
<path d="M5788 9123 c7 -3 16 -2 19 1 4 3 -2 6 -13 5 -11 0 -14 -3 -6 -6z"/>
<path d="M5730 9091 c0 -5 10 -11 23 -15 35 -9 40 -7 27 9 -13 16 -50 21 -50
6z"/>
<path d="M5838 9063 c6 -2 18 -2 25 0 6 3 1 5 -13 5 -14 0 -19 -2 -12 -5z"/>
<path d="M5720 9055 c0 -3 12 -18 28 -32 26 -25 26 -25 4 -18 -21 6 -23 4 -17
-14 4 -15 2 -21 -8 -21 -16 0 -30 -27 -21 -41 8 -14 31 -11 38 6 6 16 66 18
66 3 0 -4 7 -8 15 -8 16 0 37 63 23 68 -4 2 -8 12 -8 23 0 21 -10 25 -26 9 -6
-6 -21 -6 -39 -1 -17 5 -22 10 -12 10 27 1 10 21 -19 21 -13 0 -24 -2 -24 -5z"/>
<path d="M5870 8960 c0 -5 7 -7 15 -4 8 4 15 8 15 10 0 2 -7 4 -15 4 -8 0 -15
-4 -15 -10z"/>
<path d="M5750 8924 c0 -13 18 -39 24 -34 2 3 -2 14 -10 24 -8 11 -14 16 -14
10z"/>
<path d="M5695 8900 c3 -5 15 -10 26 -10 11 0 17 5 14 10 -3 6 -15 10 -26 10
-11 0 -17 -4 -14 -10z"/>
<path d="M4980 8880 c0 -5 10 -10 23 -10 18 0 19 2 7 10 -19 13 -30 13 -30 0z"/>
<path d="M5180 8881 c0 -5 7 -12 16 -15 24 -9 27 -7 10 9 -17 17 -26 19 -26 6z"/>
<path d="M5643 8853 c-20 -7 8 -43 34 -43 26 0 35 12 27 34 -6 15 -36 20 -61
9z"/>
<path d="M7865 8849 c-4 -6 -3 -15 3 -21 6 -6 11 -4 15 6 7 18 -9 31 -18 15z"/>
<path d="M5250 8846 c0 -2 7 -6 15 -10 8 -3 15 -1 15 4 0 6 -7 10 -15 10 -8 0
-15 -2 -15 -4z"/>
<path d="M7816 8841 c-11 -4 -15 -10 -9 -14 5 -3 19 0 29 8 20 15 11 18 -20 6z"/>
<path d="M7945 8840 c-4 -6 5 -10 19 -10 14 0 26 5 26 10 0 6 -9 10 -19 10
-11 0 -23 -4 -26 -10z"/>
<path d="M8045 8821 c-3 -6 4 -15 15 -21 17 -9 18 -14 7 -30 -14 -23 -27 -26
-27 -7 0 15 -49 42 -58 32 -3 -3 0 -5 6 -5 7 0 12 -8 12 -17 0 -11 -3 -14 -8
-7 -4 6 -18 14 -32 18 -21 6 -22 5 -7 -4 9 -6 17 -17 17 -24 0 -7 19 -17 43
-23 24 -5 41 -14 40 -21 -4 -15 13 -16 22 -2 3 6 14 9 23 9 13 -1 14 -2 2 -5
-8 -3 -20 -15 -26 -28 -12 -26 -14 -25 46 -17 3 1 5 26 5 56 -1 50 -3 57 -35
80 -39 29 -37 28 -45 16z"/>
<path d="M5715 8800 c4 -6 11 -8 16 -5 14 9 11 15 -7 15 -8 0 -12 -5 -9 -10z"/>
<path d="M5850 8787 c0 -9 -6 -17 -12 -20 -10 -3 -10 -7 0 -20 8 -9 19 -14 26
-11 14 5 41 -16 48 -38 3 -7 12 -9 23 -5 17 7 17 8 -1 23 -12 10 -15 17 -7 20
14 6 -28 50 -57 59 -14 4 -20 2 -20 -8z"/>
<path d="M5665 8779 c-3 -3 2 -12 10 -19 11 -10 18 -9 30 4 9 9 15 16 13 17
-20 5 -50 4 -53 -2z"/>
<path d="M5910 8786 c0 -2 7 -9 15 -16 9 -7 15 -8 15 -2 0 5 -7 12 -15 16 -8
3 -15 4 -15 2z"/>
<path d="M5987 8760 c9 -17 24 -30 33 -30 8 0 25 -3 38 -6 12 -4 22 -2 22 4 0
6 -10 14 -22 18 -13 3 -30 12 -38 19 -8 6 -23 15 -33 18 -17 6 -17 6 0 -23z"/>
<path d="M7700 8775 c7 -8 17 -15 22 -15 6 0 5 7 -2 15 -7 8 -17 15 -22 15 -6
0 -5 -7 2 -15z"/>
<path d="M7908 8783 c7 -3 16 -2 19 1 4 3 -2 6 -13 5 -11 0 -14 -3 -6 -6z"/>
<path d="M5778 8768 c5 -5 16 -8 23 -6 8 3 3 7 -10 11 -17 4 -21 3 -13 -5z"/>
<path d="M1468 8763 c7 -3 16 -2 19 1 4 3 -2 6 -13 5 -11 0 -14 -3 -6 -6z"/>
<path d="M7927 8749 c7 -7 15 -10 18 -7 3 3 -2 9 -12 12 -14 6 -15 5 -6 -5z"/>
<path d="M5777 8739 c7 -7 15 -10 18 -7 3 3 -2 9 -12 12 -14 6 -15 5 -6 -5z"/>
<path d="M1536 8725 c10 -8 31 -15 46 -15 26 0 90 -28 96 -42 5 -12 32 -10 32
2 0 6 -5 10 -11 10 -7 0 -34 14 -61 30 -31 19 -62 30 -85 30 -35 0 -36 -1 -17
-15z"/>
<path d="M5950 8731 c0 -5 7 -14 16 -19 16 -9 17 -35 3 -80 -2 -8 6 -18 19
-23 20 -8 22 -6 22 24 -1 37 -29 99 -47 105 -7 2 -13 -1 -13 -7z"/>
<path d="M5680 8721 c0 -6 4 -13 10 -16 6 -3 7 1 4 9 -7 18 -14 21 -14 7z"/>
<path d="M5720 8726 c0 -2 9 -6 20 -9 11 -3 18 -1 14 4 -5 9 -34 13 -34 5z"/>
<path d="M5824 8715 c26 -19 42 -19 26 0 -7 8 -20 15 -29 15 -13 -1 -13 -3 3
-15z"/>
<path d="M7970 8716 c0 -17 14 -29 23 -20 8 8 -3 34 -14 34 -5 0 -9 -6 -9 -14z"/>
<path d="M7930 8696 c0 -8 5 -18 10 -21 6 -3 10 3 10 14 0 12 -4 21 -10 21 -5
0 -10 -6 -10 -14z"/>
<path d="M5810 8689 c0 -6 -7 -9 -15 -5 -8 3 -15 1 -15 -4 0 -6 5 -10 10 -10
6 0 15 -11 20 -25 5 -14 14 -25 20 -25 13 0 13 17 0 25 -16 10 -12 25 5 19 8
-4 15 -14 15 -24 0 -11 5 -22 10 -25 6 -3 10 -14 10 -25 0 -10 7 -20 15 -24
12 -4 14 0 9 22 -7 27 -7 27 14 9 26 -24 42 -15 42 24 0 19 -5 29 -15 29 -9 0
-20 11 -25 25 -11 29 -25 32 -39 8 -9 -17 -10 -17 -28 0 -23 20 -33 22 -33 6z
m91 -37 c-6 -2 -11 -11 -11 -20 -1 -15 -3 -14 -15 2 -19 26 -1 53 22 34 10 -8
11 -14 4 -16z"/>
<path d="M5757 8659 c7 -7 15 -10 18 -7 3 3 -2 9 -12 12 -14 6 -15 5 -6 -5z"/>
<path d="M5585 8650 c-7 -12 2 -30 16 -30 5 0 9 9 9 20 0 21 -15 27 -25 10z"/>
<path d="M6120 8650 c0 -5 5 -10 10 -10 6 0 10 5 10 10 0 6 -4 10 -10 10 -5 0
-10 -4 -10 -10z"/>
<path d="M1745 8640 c-3 -5 1 -10 10 -10 9 0 13 5 10 10 -3 6 -8 10 -10 10 -2
0 -7 -4 -10 -10z"/>
<path d="M8045 8640 c-3 -6 1 -13 10 -16 19 -8 30 0 20 15 -8 14 -22 14 -30 1z"/>
<path d="M6030 8629 c0 -5 5 -7 10 -4 6 3 10 8 10 11 0 2 -4 4 -10 4 -5 0 -10
-5 -10 -11z"/>
<path d="M5740 8620 c0 -9 71 -42 78 -36 10 11 -19 34 -48 38 -17 3 -30 2 -30
-2z"/>
<path d="M0 8527 l0 -94 31 -7 c16 -3 54 -22 83 -41 29 -19 58 -35 63 -35 5 0
18 -9 28 -20 17 -19 17 -20 0 -20 -17 0 -17 -1 0 -20 17 -19 17 -20 -9 -30
-42 -16 -67 -13 -64 8 2 10 -3 17 -12 17 -9 0 -14 -7 -12 -17 2 -13 -4 -18
-19 -18 -13 0 -38 -5 -56 -12 -27 -10 -33 -17 -33 -41 0 -20 6 -30 20 -34 11
-3 20 -12 20 -19 0 -16 36 -19 45 -5 3 5 27 8 53 6 103 -8 289 -6 317 3 17 5
44 7 61 5 36 -6 52 11 33 33 -7 8 -40 36 -73 61 -59 45 -93 73 -143 121 -13
12 -27 22 -31 22 -4 0 -42 32 -84 70 -65 58 -149 120 -205 154 -10 5 -13 -14
-13 -87z m270 -257 c12 -8 11 -10 -7 -10 -13 0 -23 5 -23 10 0 13 11 13 30 0z"/>
<path d="M7420 8608 c0 -7 4 -19 9 -26 7 -11 10 -10 15 3 3 9 4 21 0 26 -8 13
-24 11 -24 -3z"/>
<path d="M5403 8586 c7 -18 -28 -50 -44 -40 -8 4 -10 3 -5 -4 4 -7 14 -12 22
-12 9 0 14 -11 14 -30 0 -24 -4 -30 -21 -30 -16 0 -19 -4 -15 -17 4 -9 1 -20
-6 -24 -9 -6 -9 -15 4 -41 14 -28 17 -29 17 -11 1 12 5 24 11 28 5 3 7 11 4
18 -2 7 7 19 20 27 20 10 23 17 16 30 -6 11 -6 30 0 49 5 17 6 31 2 31 -3 0
-1 5 6 12 18 18 15 28 -9 28 -14 0 -19 -5 -16 -14z"/>
<path d="M5720 8590 c0 -6 7 -10 15 -10 8 0 15 2 15 4 0 2 -7 6 -15 10 -8 3
-15 1 -15 -4z"/>
<path d="M5535 8580 c3 -5 8 -10 11 -10 2 0 4 5 4 10 0 6 -5 10 -11 10 -5 0
-7 -4 -4 -10z"/>
<path d="M5746 8561 c-18 -7 -18 -8 -2 -14 9 -4 14 -11 11 -17 -3 -5 3 -10 14
-10 15 0 19 4 14 17 -5 12 -3 14 8 8 12 -8 12 -6 0 8 -15 19 -17 19 -45 8z"/>
<path d="M5915 8530 c3 -5 10 -10 16 -10 5 0 9 5 9 10 0 6 -7 10 -16 10 -8 0
-12 -4 -9 -10z"/>
<path d="M6485 8530 c-3 -5 1 -10 9 -10 9 0 16 5 16 10 0 6 -4 10 -9 10 -6 0
-13 -4 -16 -10z"/>
<path d="M2095 8510 c22 -10 51 -18 65 -18 24 0 24 0 -5 12 -16 7 -46 16 -65
19 l-35 6 40 -19z"/>
<path d="M5783 8493 c9 -2 23 -2 30 0 6 3 -1 5 -18 5 -16 0 -22 -2 -12 -5z"/>
<path d="M5730 8486 c0 -2 7 -7 16 -10 8 -3 12 -2 9 4 -6 10 -25 14 -25 6z"/>
<path d="M2220 8466 c0 -2 7 -6 15 -10 8 -3 15 -1 15 4 0 6 -7 10 -15 10 -8 0
-15 -2 -15 -4z"/>
<path d="M5485 8460 c3 -5 8 -10 11 -10 2 0 4 5 4 10 0 6 -5 10 -11 10 -5 0
-7 -4 -4 -10z"/>
<path d="M6410 8460 c0 -5 7 -7 15 -4 8 4 15 8 15 10 0 2 -7 4 -15 4 -8 0 -15
-4 -15 -10z"/>
<path d="M5630 8450 c0 -5 5 -10 10 -10 6 0 10 5 10 10 0 6 -4 10 -10 10 -5 0
-10 -4 -10 -10z"/>
<path d="M2285 8440 c6 -10 76 -32 82 -26 2 2 -17 11 -42 19 -25 9 -43 12 -40
7z"/>
<path d="M5431 8428 c-1 -10 -6 -18 -11 -18 -6 0 -3 -11 5 -24 9 -13 12 -26 7
-28 -13 -5 -25 -48 -13 -48 5 0 11 8 13 18 3 13 7 10 18 -13 17 -33 50 -47 50
-21 0 18 41 21 105 6 22 -5 55 -5 75 0 19 4 26 8 16 9 -19 1 -19 2 -2 14 18
13 18 14 0 21 -16 6 -16 9 -4 16 10 6 -3 8 -37 5 -36 -3 -53 -1 -56 9 -3 8
-22 12 -54 11 -62 -1 -91 9 -103 37 -7 18 -9 19 -9 6z"/>
<path d="M5836 8424 c-3 -8 -2 -12 4 -9 5 3 18 0 29 -7 27 -16 40 -2 15 17
-25 19 -40 19 -48 -1z"/>
<path d="M6410 8430 c0 -5 5 -10 10 -10 6 0 10 5 10 10 0 6 -4 10 -10 10 -5 0
-10 -4 -10 -10z"/>
<path d="M7417 8420 c-3 -12 0 -20 8 -20 8 0 11 8 8 20 -3 11 -7 20 -8 20 -1
0 -5 -9 -8 -20z"/>
<path d="M5329 8373 c-10 -2 -20 -12 -23 -21 -16 -43 -39 -72 -56 -72 -10 0
-32 -11 -49 -25 -27 -23 -36 -25 -83 -19 -29 3 -72 15 -94 25 -38 18 -56 22
-118 31 -10 2 -21 -3 -23 -9 -3 -8 5 -13 22 -13 14 0 34 -4 43 -9 10 -5 51
-17 92 -26 159 -35 152 -32 90 -35 -30 -1 -64 -6 -75 -11 -16 -7 -14 -8 10 -4
17 2 62 5 100 7 39 1 76 6 84 12 10 8 15 8 18 -1 3 -7 16 -13 29 -13 23 0 28
11 27 58 -1 6 4 12 9 12 6 0 8 7 4 15 -4 10 1 15 17 16 21 0 21 1 2 9 -14 6
-15 9 -5 10 9 1 5 6 -10 12 -21 9 -22 12 -7 15 9 3 17 13 17 24 0 10 -1 18 -2
18 -2 -1 -10 -3 -19 -6z"/>
<path d="M7426 8371 c-6 -10 16 -21 42 -21 13 0 12 3 -4 15 -22 17 -31 18 -38
6z"/>
<path d="M7490 8370 c0 -5 5 -10 11 -10 5 0 7 5 4 10 -3 6 -8 10 -11 10 -2 0
-4 -4 -4 -10z"/>
<path d="M7273 8363 c15 -2 37 -2 50 0 12 2 0 4 -28 4 -27 0 -38 -2 -22 -4z"/>
<path d="M7271 8345 c3 -2 23 -7 45 -10 28 -3 34 -2 19 4 -21 10 -72 15 -64 6z"/>
<path d="M7315 8300 c-3 -5 3 -10 14 -10 11 0 23 5 26 10 3 6 -3 10 -14 10
-11 0 -23 -4 -26 -10z"/>
<path d="M5931 8244 c-11 -13 -11 -18 -1 -24 7 -4 9 -13 5 -21 -6 -9 -3 -11 9
-6 10 4 20 7 22 7 10 0 3 29 -8 33 -10 4 -10 6 0 6 7 1 10 6 7 11 -8 14 -18
12 -34 -6z"/>
<path d="M7365 8240 c26 -11 62 -12 69 -2 2 4 -17 8 -42 9 -34 1 -41 -1 -27
-7z"/>
<path d="M5860 8230 c0 -12 28 -25 36 -17 3 3 -4 10 -15 17 -15 7 -21 7 -21 0z"/>
<path d="M5338 8213 c7 -3 16 -2 19 1 4 3 -2 6 -13 5 -11 0 -14 -3 -6 -6z"/>
<path d="M5751 8142 c4 -43 14 -92 22 -108 22 -42 96 -108 148 -131 55 -25 82
-54 81 -90 0 -15 4 -35 9 -45 7 -12 2 -21 -20 -35 -16 -10 -29 -20 -29 -23 2
-15 -17 -57 -31 -67 -15 -11 -14 -12 2 -13 9 0 17 5 17 11 0 6 8 8 19 4 31 -9
64 29 56 65 -3 15 -2 31 3 34 15 9 56 190 49 211 -6 13 -13 15 -30 9 -12 -4
-45 -8 -74 -8 -100 -2 -180 85 -185 200 -3 51 -6 59 -23 62 -20 3 -21 -1 -14
-76z"/>
<path d="M5400 8201 c0 -6 5 -13 10 -16 6 -3 10 1 10 9 0 9 -4 16 -10 16 -5 0
-10 -4 -10 -9z"/>
<path d="M6000 8190 c0 -5 5 -10 10 -10 6 0 10 5 10 10 0 6 -4 10 -10 10 -5 0
-10 -4 -10 -10z"/>
<path d="M7443 8193 c9 -2 23 -2 30 0 6 3 -1 5 -18 5 -16 0 -22 -2 -12 -5z"/>
<path d="M6565 8170 c3 -5 8 -10 11 -10 2 0 4 5 4 10 0 6 -5 10 -11 10 -5 0
-7 -4 -4 -10z"/>
<path d="M5125 8165 c-5 -2 -23 -6 -39 -10 -18 -4 -25 -9 -18 -14 12 -7 17
-30 14 -64 -2 -14 -7 -17 -22 -12 -14 4 -18 2 -15 -7 6 -19 -40 -68 -65 -68
-21 0 -27 -14 -10 -25 17 -10 1 -25 -27 -25 -23 0 -25 -3 -19 -30 4 -22 2 -30
-9 -30 -18 0 -20 -17 -2 -23 8 -3 5 -10 -10 -24 -16 -14 -19 -23 -11 -37 5 -9
8 -19 6 -20 -1 -1 -16 -10 -31 -19 -15 -10 -25 -22 -22 -27 4 -6 -1 -10 -10
-10 -11 0 -15 -5 -11 -15 3 -8 1 -15 -5 -15 -6 0 -8 -4 -5 -9 3 -5 -1 -14 -9
-21 -16 -13 -9 -40 11 -40 8 0 14 -4 14 -10 0 -13 -17 -13 -25 0 -9 14 -32 1
-38 -21 -3 -11 -14 -19 -26 -19 -12 0 -21 -4 -21 -10 0 -5 5 -10 11 -10 6 0 8
-11 5 -27 -6 -29 7 -63 20 -51 10 11 44 -11 44 -27 0 -8 -8 -15 -18 -15 -10 0
-22 -3 -25 -7 -4 -3 -19 -8 -34 -9 -26 -3 -59 -32 -48 -42 2 -3 14 -5 26 -6
12 0 24 -7 27 -15 3 -10 -3 -12 -27 -9 -44 6 -61 -22 -31 -52 27 -27 25 -33
-5 -26 -24 6 -25 5 -19 -21 9 -37 9 -37 36 -20 12 9 59 30 104 47 79 31 81 32
78 62 -2 17 1 37 8 45 9 11 9 16 -1 23 -10 5 -12 25 -9 69 2 33 2 61 -1 62
-34 4 -55 11 -67 23 -11 12 -11 15 2 20 23 9 31 7 16 -3 -10 -6 -4 -10 19 -15
34 -6 53 7 44 31 -2 6 1 13 6 15 5 2 11 17 13 33 3 19 9 29 17 27 23 -6 29
-25 22 -72 -12 -75 -6 -153 13 -167 10 -7 14 -19 10 -28 -3 -9 -3 -27 0 -39 6
-25 7 -25 234 17 47 9 150 23 230 32 141 15 183 24 124 26 -16 0 -24 3 -17 5
8 4 5 12 -8 25 -16 16 -23 18 -35 8 -11 -9 -14 -8 -14 5 0 9 -10 21 -22 27
-24 10 3 8 114 -10 26 -4 44 -3 42 1 -3 5 -1 15 5 22 15 18 -60 79 -85 69 -12
-4 -15 -3 -10 5 5 8 -3 12 -24 12 -17 0 -51 11 -76 25 -25 14 -52 25 -62 25
-14 0 -15 2 -2 9 8 6 19 7 25 4 5 -4 6 -2 2 3 -5 5 -12 9 -15 10 -4 0 -18 6
-32 12 l-25 10 33 7 c17 4 32 12 32 17 0 6 -11 7 -24 4 -14 -3 -27 -2 -30 3
-4 5 7 12 23 16 20 4 28 11 24 21 -4 10 -24 14 -72 16 -40 1 -50 3 -26 5 107
9 124 13 122 34 -2 25 -32 53 -47 44 -5 -3 -8 -11 -5 -16 10 -15 -22 -10 -35
6 -11 13 -10 18 5 29 17 12 17 13 -7 19 -21 6 -24 11 -20 32 4 21 10 25 41 24
20 0 30 -3 24 -6 -7 -2 -13 -11 -13 -19 0 -8 -8 -14 -17 -15 -14 0 -13 -2 5
-9 12 -5 22 -14 22 -20 0 -5 5 -10 11 -10 5 0 9 8 7 18 -1 9 1 22 4 28 14 22
-4 54 -31 55 -60 2 -81 5 -91 15 -8 8 12 10 66 8 43 -1 72 1 65 6 -11 6 -11 9
0 14 8 3 -2 4 -22 1 -43 -6 -69 2 -69 21 0 8 -6 14 -12 14 -10 0 -10 2 0 9 12
7 11 14 -2 39 -22 43 -20 51 14 50 17 -1 33 2 37 5 6 7 -173 8 -192 2z m76
-14 c-10 -7 -8 -12 10 -25 23 -16 23 -16 2 -16 -23 0 -36 -31 -27 -66 4 -15
-2 -27 -20 -42 -18 -13 -26 -30 -26 -50 0 -17 -5 -32 -12 -34 -10 -4 -9 -14 2
-47 12 -37 12 -44 -1 -52 -10 -6 -11 -9 -1 -9 7 0 22 -9 34 -20 18 -16 19 -20
6 -20 -21 0 -33 -37 -18 -54 6 -8 9 -30 7 -50 -3 -26 0 -39 12 -46 25 -13 4
-25 -23 -12 -35 16 -46 -15 -14 -40 16 -12 18 -18 8 -17 -25 0 -61 36 -54 53
3 9 1 23 -6 31 -7 8 -9 15 -4 16 5 0 -2 5 -15 10 l-24 10 30 22 c27 19 29 25
18 40 -7 9 -23 16 -36 16 -17 -1 -19 -3 -6 -6 19 -5 22 -19 6 -29 -13 -8 -32
20 -35 53 -2 16 2 20 13 16 12 -5 14 -1 8 17 -5 14 -3 25 6 30 10 7 10 11 0
24 -12 14 -10 16 8 16 14 0 21 6 21 20 0 14 7 20 22 20 17 0 19 3 10 12 -18
18 -14 31 8 25 19 -5 19 -4 4 25 -14 27 -14 31 2 49 9 10 14 19 9 19 -4 0 -2
7 5 15 7 8 9 15 5 15 -4 0 -3 6 2 13 6 6 13 24 17 39 5 24 19 33 51 37 6 0 4
-3 -4 -8z m49 -71 c0 -5 -2 -10 -4 -10 -3 0 -8 5 -11 10 -3 6 -1 10 4 10 6 0
11 -4 11 -10z m-185 -60 c3 -5 1 -10 -4 -10 -6 0 -11 5 -11 10 0 6 2 10 4 10
3 0 8 -4 11 -10z m-121 -316 c9 -23 8 -24 -14 -24 -19 0 -27 20 -13 33 11 11
20 8 27 -9z m404 -73 c9 -5 51 -22 92 -37 41 -15 81 -34 88 -41 7 -7 20 -13
27 -13 9 0 12 -6 8 -15 -4 -13 -15 -14 -52 -9 -54 8 -59 10 -43 26 17 17 15
25 -8 31 -22 6 -28 -8 -7 -16 6 -3 -5 -6 -25 -6 -21 -1 -38 -6 -38 -12 0 -7
-10 -9 -27 -4 -38 9 -39 12 -13 35 l24 20 -32 12 c-18 7 -32 18 -32 25 0 15
13 17 38 4z m-208 -100 c0 -5 -7 -11 -14 -14 -10 -4 -13 -1 -9 9 6 15 23 19
23 5z m-305 -11 c4 -6 -5 -10 -19 -10 -14 0 -26 5 -26 10 0 6 9 10 19 10 11 0
23 -4 26 -10z m362 -34 c-17 -13 -17 -15 5 -31 l23 -16 -30 7 c-38 9 -35 6
-28 32 3 14 13 22 27 22 20 -1 20 -1 3 -14z m10 -62 c-3 -3 -12 -4 -19 -1 -8
3 -5 6 6 6 11 1 17 -2 13 -5z m-469 -49 c-3 -3 -13 -2 -22 1 -14 5 -15 9 -4
15 13 8 36 -6 26 -16z"/>
<path d="M5105 7790 c3 -5 14 -10 23 -10 15 0 15 2 2 10 -20 13 -33 13 -25 0z"/>
<path d="M5072 7678 c3 -7 15 -14 29 -16 24 -4 24 -3 4 12 -24 19 -38 20 -33
4z"/>
<path d="M5095 7640 c-3 -5 1 -10 9 -10 9 0 16 5 16 10 0 6 -4 10 -9 10 -6 0
-13 -4 -16 -10z"/>
<path d="M5376 7574 c-8 -22 -6 -23 27 -17 25 5 26 6 10 19 -24 18 -30 17 -37
-2z"/>
<path d="M5840 8135 c0 -90 79 -150 148 -112 26 15 20 27 -43 72 -22 16 -46
37 -53 47 -20 28 -52 23 -52 -7z"/>
<path d="M580 8141 c0 -5 5 -13 10 -16 6 -3 10 -2 10 4 0 5 -4 13 -10 16 -5 3
-10 2 -10 -4z"/>
<path d="M5287 8143 c-13 -12 -7 -33 8 -33 8 0 15 6 15 14 0 8 8 17 18 19 11
3 8 5 -9 6 -14 0 -29 -2 -32 -6z"/>
<path d="M5470 8119 c0 -5 5 -7 10 -4 6 3 10 8 10 11 0 2 -4 4 -10 4 -5 0 -10
-5 -10 -11z"/>
<path d="M5545 8080 c3 -5 13 -10 21 -10 8 0 12 5 9 10 -3 6 -13 10 -21 10 -8
0 -12 -4 -9 -10z"/>
<path d="M695 8030 c-1 -26 3 -40 12 -40 7 0 13 7 13 15 0 14 3 14 29 0 16 -8
32 -20 35 -27 5 -10 7 -10 12 0 3 6 10 12 15 12 6 0 7 -5 3 -11 -12 -19 49
-64 91 -67 l39 -3 -37 26 c-21 14 -40 25 -43 25 -3 0 -26 18 -51 40 -25 22
-51 40 -58 40 -7 0 -18 7 -25 15 -22 26 -35 17 -35 -25z"/>
<path d="M5590 8046 c0 -19 39 -46 66 -46 21 0 47 -22 57 -50 5 -13 5 -13 6 0
0 8 -15 33 -34 55 -26 30 -34 35 -35 22 0 -22 -25 -17 -25 4 0 14 -14 29 -27
29 -5 0 -8 -6 -8 -14z"/>
<path d="M616 8043 c-11 -11 -6 -23 9 -23 8 0 15 4 15 9 0 13 -16 22 -24 14z"/>
<path d="M5505 8030 c3 -5 14 -10 23 -10 15 0 15 2 2 10 -20 13 -33 13 -25 0z"/>
<path d="M5541 7979 c22 -29 60 -47 131 -63 20 -5 25 -10 21 -26 -8 -31 -22
-34 -54 -11 -19 14 -29 17 -29 9 0 -23 14 -35 47 -42 17 -4 34 -14 37 -22 3
-8 16 -14 28 -14 19 0 20 2 8 10 -13 8 -13 10 2 10 10 0 22 -9 28 -20 6 -11 8
-20 4 -20 -3 0 -1 -7 6 -15 7 -8 16 -15 21 -15 5 0 6 7 3 15 -4 9 0 15 7 15 9
1 8 4 -3 11 -26 15 -23 32 3 19 11 -7 23 -10 25 -7 2 2 -8 10 -24 18 -15 8
-31 20 -35 26 -4 7 -16 13 -26 13 -18 0 -37 27 -26 38 3 3 5 0 5 -6 0 -7 7
-12 15 -12 9 0 12 6 9 15 -4 8 -12 15 -20 15 -14 0 -54 19 -64 31 -3 3 -27 13
-55 23 -27 10 -54 23 -59 27 -24 21 -26 6 -5 -22z"/>
<path d="M6200 7966 c0 -22 17 -28 24 -10 9 22 8 24 -9 24 -8 0 -15 -6 -15
-14z"/>
<path d="M4820 7950 c0 -5 10 -10 23 -10 12 0 33 -3 47 -5 16 -3 12 0 -10 9
-42 18 -60 19 -60 6z"/>
<path d="M5475 7910 c3 -5 8 -10 11 -10 2 0 4 5 4 10 0 6 -5 10 -11 10 -5 0
-7 -4 -4 -10z"/>
<path d="M906 7879 c-12 -18 -13 -24 -1 -35 17 -17 37 -18 54 -1 11 10 12 9 6
-1 -4 -8 2 -23 16 -38 20 -21 21 -28 11 -44 -7 -11 -9 -19 -5 -18 5 1 18 -3
31 -10 12 -7 28 -12 35 -11 32 4 46 -3 55 -28 6 -16 11 -22 11 -15 1 14 67 17
76 2 3 -5 -1 -10 -10 -10 -9 0 -13 -4 -10 -10 3 -5 13 -10 22 -10 8 0 26 -9
40 -20 14 -11 39 -20 54 -20 16 0 29 -4 29 -10 0 -5 9 -10 20 -10 14 0 20 -7
20 -23 0 -13 -6 -24 -12 -25 -7 -1 -25 -4 -40 -8 -18 -4 -28 -2 -28 5 0 6 -4
11 -10 11 -5 0 -10 -9 -10 -20 0 -11 5 -20 11 -20 6 0 9 -6 6 -12 -8 -23 11
-56 45 -74 27 -14 61 -18 181 -20 145 -2 174 4 122 28 -14 6 -25 14 -25 18 0
4 -17 15 -37 26 -21 10 -40 21 -43 24 -15 15 -80 60 -87 60 -4 0 -28 18 -53
40 -88 79 -197 160 -214 160 -6 0 -34 17 -61 38 -130 97 -175 115 -199 81z
m214 -119 c0 -5 -5 -10 -11 -10 -5 0 -7 5 -4 10 3 6 8 10 11 10 2 0 4 -4 4
-10z"/>
<path d="M6290 7886 c0 -2 7 -6 15 -10 8 -3 15 -1 15 4 0 6 -7 10 -15 10 -8 0
-15 -2 -15 -4z"/>
<path d="M6475 7881 c-6 -11 9 -23 19 -14 9 9 7 23 -3 23 -6 0 -12 -4 -16 -9z"/>
<path d="M840 7870 c0 -5 5 -10 10 -10 6 0 10 5 10 10 0 6 -4 10 -10 10 -5 0
-10 -4 -10 -10z"/>
<path d="M6427 7873 c-6 -11 -2 -51 6 -59 4 -4 7 -1 7 7 0 8 3 24 6 37 6 20
-9 32 -19 15z"/>
<path d="M5597 7770 c10 -11 22 -20 27 -20 5 0 17 -6 25 -14 14 -13 21 -12 51
2 23 11 34 23 32 34 -2 13 -9 15 -31 8 -16 -4 -35 -4 -42 1 -8 5 -29 9 -46 9
-32 0 -32 -1 -16 -20z"/>
<path d="M6392 7777 c-5 -6 -7 -20 -3 -29 5 -15 8 -13 18 7 12 27 2 43 -15 22z"/>
<path d="M5410 7766 c0 -21 21 -31 31 -15 5 8 3 17 -4 21 -18 12 -27 10 -27
-6z"/>
<path d="M6260 7721 c0 -6 5 -13 10 -16 6 -3 10 1 10 9 0 9 -4 16 -10 16 -5 0
-10 -4 -10 -9z"/>
<path d="M5407 7713 c-12 -12 -7 -21 14 -26 13 -4 19 -11 16 -20 -4 -10 6 -14
36 -16 36 -2 39 0 27 14 -8 10 -20 13 -34 9 -18 -6 -19 -5 -8 9 11 13 10 17
-7 26 -23 13 -35 14 -44 4z"/>
<path d="M6300 7685 c0 -9 6 -18 14 -21 8 -3 12 -12 9 -20 -3 -8 0 -14 6 -14
6 0 11 4 11 9 0 5 3 17 7 26 5 14 2 16 -15 11 -17 -6 -21 -4 -16 8 3 9 1 16
-5 16 -6 0 -11 -7 -11 -15z"/>
<path d="M6290 7630 c0 -5 5 -10 11 -10 5 0 7 5 4 10 -3 6 -8 10 -11 10 -2 0
-4 -4 -4 -10z"/>
<path d="M5680 7510 c-13 -8 -13 -10 1 -10 23 0 44 -26 27 -33 -7 -3 0 -6 15
-6 38 -1 67 16 67 38 0 14 -7 18 -24 17 -20 -1 -22 -4 -14 -19 16 -31 -2 -34
-27 -4 -27 31 -25 30 -45 17z"/>
<path d="M5543 7463 c9 -2 23 -2 30 0 6 3 -1 5 -18 5 -16 0 -22 -2 -12 -5z"/>
<path d="M814 7445 c-4 -8 -14 -15 -23 -15 -23 0 -71 -23 -71 -33 0 -14 44
-46 63 -47 10 0 28 5 39 11 14 8 23 8 31 0 6 -6 24 -11 39 -11 23 0 28 4 28
25 0 14 -4 25 -10 25 -5 0 -23 14 -38 30 -32 33 -50 38 -58 15z"/>
<path d="M4736 7451 c-4 -7 -5 -15 -2 -18 9 -9 19 4 14 18 -4 11 -6 11 -12 0z"/>
<path d="M5735 7433 c1 -22 13 -43 24 -43 15 0 6 55 -10 58 -10 2 -15 -4 -14
-15z"/>
<path d="M6235 7430 c-3 -5 -2 -10 4 -10 5 0 13 5 16 10 3 6 2 10 -4 10 -5 0
-13 -4 -16 -10z"/>
<path d="M5772 7370 c-12 -30 -7 -40 19 -40 23 0 25 19 5 46 -14 18 -15 18
-24 -6z"/>
<path d="M5333 7373 c9 -2 25 -2 35 0 9 3 1 5 -18 5 -19 0 -27 -2 -17 -5z"/>
<path d="M5273 7363 c9 -2 23 -2 30 0 6 3 -1 5 -18 5 -16 0 -22 -2 -12 -5z"/>
<path d="M5135 7350 c-68 -10 -133 -29 -140 -40 -14 -22 39 -17 135 14 103 34
104 41 5 26z"/>
<path d="M5720 7330 c0 -5 5 -10 11 -10 5 0 7 5 4 10 -3 6 -8 10 -11 10 -2 0
-4 -4 -4 -10z"/>
<path d="M5725 7300 c-3 -5 -1 -10 4 -10 6 0 11 5 11 10 0 6 -2 10 -4 10 -3 0
-8 -4 -11 -10z"/>
<path d="M1829 7284 c-12 -15 -11 -16 8 -10 12 4 24 2 28 -4 3 -6 11 -8 16 -4
6 3 3 12 -8 20 -23 17 -28 17 -44 -2z"/>
<path d="M4830 7270 c-8 -5 -44 -23 -80 -39 -51 -23 -61 -31 -46 -37 16 -6 17
-8 2 -16 -9 -5 -26 -6 -37 -3 -27 9 -51 -22 -38 -48 6 -9 15 -14 21 -11 8 5 9
1 5 -10 -4 -10 -7 -21 -7 -26 0 -5 -13 -11 -29 -15 -16 -3 -37 -17 -45 -31 -9
-13 -24 -24 -34 -24 -21 0 -42 -19 -42 -38 0 -9 7 -11 20 -7 12 4 27 2 34 -5
11 -8 18 -7 31 6 11 12 19 14 27 6 19 -19 35 -3 32 31 -4 28 3 38 57 88 34 31
59 62 55 68 -4 6 0 24 9 41 13 25 20 30 38 24 32 -9 33 -12 11 -29 -17 -14
-16 -14 11 -3 17 6 37 18 45 25 13 11 13 13 0 13 -12 0 -12 2 -2 8 15 10 6 42
-12 41 -6 0 -18 -4 -26 -9z m-195 -270 c-3 -5 -11 -10 -16 -10 -6 0 -7 5 -4
10 3 6 11 10 16 10 6 0 7 -4 4 -10z"/>
<path d="M5763 7265 c0 -8 7 -15 15 -15 7 0 12 5 10 12 -6 18 -25 21 -25 3z"/>
<path d="M1742 7253 c2 -10 10 -18 18 -18 8 0 16 8 18 18 2 12 -3 17 -18 17
-15 0 -20 -5 -18 -17z"/>
<path d="M1860 7241 c0 -24 62 -39 67 -16 1 6 -5 9 -13 7 -8 -2 -14 2 -14 8 0
5 -9 10 -20 10 -11 0 -20 -4 -20 -9z"/>
<path d="M4925 7220 c-3 -5 1 -10 9 -10 9 0 16 5 16 10 0 6 -4 10 -9 10 -6 0
-13 -4 -16 -10z"/>
<path d="M4970 7200 c0 -5 7 -10 15 -10 8 0 15 5 15 10 0 6 -7 10 -15 10 -8 0
-15 -4 -15 -10z"/>
<path d="M1100 7181 c0 -6 5 -13 10 -16 6 -3 10 1 10 9 0 9 -4 16 -10 16 -5 0
-10 -4 -10 -9z"/>
<path d="M4992 7178 c-7 -7 -12 -19 -12 -27 1 -13 2 -13 11 2 5 9 16 17 24 17
8 0 17 5 20 10 9 14 -29 12 -43 -2z"/>
<path d="M4585 7130 c-3 -5 -1 -10 4 -10 6 0 11 5 11 10 0 6 -2 10 -4 10 -3 0
-8 -4 -11 -10z"/>
<path d="M6405 7120 c3 -5 10 -10 16 -10 5 0 9 5 9 10 0 6 -7 10 -16 10 -8 0
-12 -4 -9 -10z"/>
<path d="M6320 7004 c0 -19 12 -24 31 -13 27 14 23 29 -6 27 -14 -1 -25 -7
-25 -14z"/>
<path d="M6330 6956 c0 -9 6 -16 13 -16 16 0 46 20 30 20 -6 0 -18 3 -27 6
-11 4 -16 1 -16 -10z"/>
<path d="M4467 6953 c-3 -5 3 -17 14 -27 22 -18 70 -18 76 0 2 7 -8 9 -27 6
-22 -3 -35 1 -44 13 -7 10 -16 14 -19 8z"/>
<path d="M4595 6950 c-3 -5 1 -10 10 -10 9 0 13 5 10 10 -3 6 -8 10 -10 10 -2
0 -7 -4 -10 -10z"/>
<path d="M1613 6943 c-7 -3 -13 -10 -13 -16 1 -13 35 -57 45 -57 11 0 55 -54
75 -92 21 -38 40 -50 40 -24 0 8 6 17 13 20 9 5 9 7 0 12 -7 3 -9 12 -6 20 3
9 -3 21 -16 30 -11 8 -21 24 -21 34 0 21 -45 60 -69 60 -10 0 -21 4 -26 9 -6
5 -16 6 -22 4z"/>
<path d="M6356 6911 c-4 -6 -4 -16 0 -22 3 -6 2 -21 -4 -32 -6 -12 -15 -49
-21 -82 -6 -33 -14 -73 -17 -90 -4 -19 -3 -26 3 -20 5 6 17 46 27 90 10 44 22
96 26 115 9 34 -1 63 -14 41z"/>
<path d="M4114 6632 c1 -30 5 -38 24 -40 23 -3 24 -2 26 46 1 22 -3 27 -25 29
-24 2 -26 -1 -25 -35z"/>
<path d="M4235 6650 c-4 -6 -3 -16 3 -22 6 -6 12 -6 17 2 4 6 3 16 -3 22 -6 6
-12 6 -17 -2z"/>
<path d="M3710 6400 c0 -5 5 -10 11 -10 5 0 7 5 4 10 -3 6 -8 10 -11 10 -2 0
-4 -4 -4 -10z"/>
<path d="M3740 6381 c0 -6 5 -13 10 -16 6 -3 10 1 10 9 0 9 -4 16 -10 16 -5 0
-10 -4 -10 -9z"/>
<path d="M3815 6350 c3 -5 10 -10 16 -10 5 0 9 5 9 10 0 6 -7 10 -16 10 -8 0
-12 -4 -9 -10z"/>
<path d="M3920 6300 c0 -5 7 -10 16 -10 8 0 12 5 9 10 -3 6 -10 10 -16 10 -5
0 -9 -4 -9 -10z"/>
<path d="M870 6179 c0 -5 5 -7 10 -4 6 3 10 8 10 11 0 2 -4 4 -10 4 -5 0 -10
-5 -10 -11z"/>
<path d="M3896 5951 c-8 -13 16 -30 52 -37 44 -9 42 13 -3 32 -40 17 -42 17
-49 5z"/>
<path d="M3680 5710 c0 -5 4 -10 9 -10 5 0 18 -3 28 -6 16 -5 16 -4 -1 10 -23
18 -36 20 -36 6z"/>
<path d="M480 5580 c0 -5 7 -10 15 -10 8 0 15 5 15 10 0 6 -7 10 -15 10 -8 0
-15 -4 -15 -10z"/>
<path d="M3345 5571 c-3 -5 -1 -12 5 -16 5 -3 10 1 10 9 0 18 -6 21 -15 7z"/>
<path d="M2855 5170 c-3 -5 1 -10 9 -10 9 0 16 5 16 10 0 6 -4 10 -9 10 -6 0
-13 -4 -16 -10z"/>
<path d="M2847 5123 c-13 -12 -7 -23 13 -23 11 0 20 7 20 15 0 15 -21 21 -33
8z"/>
<path d="M2450 4920 c0 -5 7 -10 15 -10 8 0 15 5 15 10 0 6 -7 10 -15 10 -8 0
-15 -4 -15 -10z"/>
<path d="M2625 4900 c-3 -5 -1 -10 4 -10 6 0 11 5 11 10 0 6 -2 10 -4 10 -3 0
-8 -4 -11 -10z"/>
<path d="M3190 3805 c-11 -25 -18 -50 -15 -55 3 -6 2 -10 -4 -10 -11 0 -26
-46 -35 -105 l-6 -40 25 30 c14 17 28 40 31 53 4 12 15 39 25 59 20 39 26 113
9 113 -5 0 -19 -20 -30 -45z"/>
<path d="M1862 778 c-6 -6 -29 -13 -49 -15 -21 -1 -43 -9 -49 -18 -6 -8 -16
-15 -21 -15 -6 0 -16 -6 -22 -14 -16 -19 10 -38 43 -31 14 3 36 7 49 10 30 6
87 57 87 78 0 20 -21 22 -38 5z"/>
<path d="M1515 722 c-18 -13 -39 -86 -26 -90 6 -2 0 -13 -15 -24 -36 -29 -17
-41 34 -21 42 16 42 16 42 68 0 52 -16 81 -35 67z"/>
</g>
</svg>
